<?xml version="1.0" encoding="utf-8"?>
<!-- Generator: Adobe Illustrator 22.1.0, SVG Export Plug-In . SVG Version: 6.00 Build 0)  -->
<svg version="1.1" id="Layer_1" xmlns="http://www.w3.org/2000/svg" xmlns:xlink="http://www.w3.org/1999/xlink" x="0px" y="0px"
	 viewBox="0 0 192 206" style="enable-background:new 0 0 192 206;" xml:space="preserve">
<style type="text/css">
	.st0{opacity:0.7;fill:#E5E8EB;enable-background:new    ;}
	.st1{fill:#FFFFFF;}
	.st2{fill:none;}
	.st3{fill:#A8B0BB;stroke:#FFFFFF;stroke-width:5;stroke-miterlimit:10;}
	.st4{fill:#A8B0BB;}
	.st5{fill:#16A085;stroke:#FFFFFF;stroke-width:2;stroke-miterlimit:10;}
	.st6{fill:#42BEFC;}
	.st7{fill:#F9914B;}
	.st8{fill:#A0B4F9;}
	.st9{fill:#FC7370;}
	.st10{fill:#16A085;}
</style>
<path class="st0" d="M114.2,164.1H28.1c-13.7,0-24.8-11.2-24.8-24.8V28.5c0-13.7,11.2-24.8,24.8-24.8h86.1
	c13.7,0,24.8,11.2,24.8,24.8v110.8C139.1,152.9,127.9,164.1,114.2,164.1z"/>
<rect x="49.2" y="122.8" class="st1" width="65.4" height="4.5"/>
<line class="st2" x1="29.2" y1="180.8" x2="162.7" y2="180.8"/>
<circle class="st1" cx="145.6" cy="161.4" r="42.4"/>
<rect x="49.2" y="136.8" class="st1" width="60.4" height="4.5"/>
<path class="st3" d="M147,102.3V41.2c0-14.3-11.7-26-26-26H29.5c-8.1,0-15.3,7.2-15.3,15.8v121.6c0,14.3,11.7,26,26,26H95
	c3.5,0,6.8,1.8,8.7,4.8c8.4,13.6,23.3,22.9,40.9,22.9c26.3,0,47.8-21.5,47.8-47.8c-0.5-22.6-16.5-41.3-37.5-46.2
	C150.3,111.2,147,107,147,102.3z M85.1,169.4H39.7c-9.4,0-16.9-7.6-16.9-16.9V41.2c0.9-17,0.9-17,16.9-16.9h81.2
	c9.4,0,16.9,7.6,16.9,16.9v62.3c0,4.5-4.4,8.4-8.7,9.7c-4.1,1.2-8,3-11.6,5.4c-0.3,0.2-0.5,0.3-0.7,0.5l-6,4.8
	c-0.2,0.2-0.4,0.4-0.7,0.6c-9.3,8.6-15,20.9-15,34.6l0,0C95.3,164.7,90.8,169.4,85.1,169.4z M147.5,196.9c-24.2,2.1-44.1-17.8-42-42
	c1.6-18.4,16.6-33.5,35.1-35.1c24.2-2.1,44.1,17.8,42,42C181,180.3,166,195.4,147.5,196.9z"/>
<circle class="st4" cx="30.7" cy="29.8" r="2.7"/>
<circle class="st4" cx="40.1" cy="29.8" r="2.7"/>
<circle class="st4" cx="49.4" cy="29.8" r="2.7"/>
<rect x="19.4" y="37.8" class="st4" width="121.7" height="4.7"/>
<polygon class="st5" points="165.4,143.5 165.8,143.2 160.9,138.3 144.5,154.7 128.6,138.7 128.2,138.3 123.3,143.2 139.6,159.5 
	123.7,175.4 123.3,175.8 128.2,180.8 144.5,164.4 160.5,180.3 160.9,180.8 165.8,175.8 149.4,159.5 "/>
<circle class="st6" cx="40.6" cy="64.2" r="3.3"/>
<circle class="st7" cx="40.6" cy="79.5" r="3.3"/>
<circle class="st8" cx="40.6" cy="95.7" r="3.3"/>
<circle class="st9" cx="40.6" cy="110" r="3.3"/>
<rect x="49.2" y="61.8" class="st1" width="69.1" height="5.1"/>
<rect x="49.2" y="77.4" class="st1" width="69.1" height="4.5"/>
<rect x="49.2" y="92.8" class="st1" width="69.1" height="4.5"/>
<circle class="st8" cx="40.6" cy="125.7" r="3.3"/>
<circle class="st10" cx="40.6" cy="139.7" r="3.3"/>
<rect x="49.2" y="108.1" class="st1" width="44.1" height="4.5"/>
</svg>
