<?xml version="1.0" encoding="utf-8"?>
<!-- Generator: Adobe Illustrator 22.1.0, SVG Export Plug-In . SVG Version: 6.00 Build 0)  -->
<svg version="1.1" id="Layer_1" xmlns="http://www.w3.org/2000/svg" xmlns:xlink="http://www.w3.org/1999/xlink" x="0px" y="0px"
	 viewBox="0 0 270 270" style="enable-background:new 0 0 270 270;" xml:space="preserve">
<style type="text/css">
	.st0{opacity:0.5;fill:#A8B0BB;enable-background:new    ;}
	.st1{opacity:0.4;fill:#E5E8EB;enable-background:new    ;}
	.st2{fill:none;stroke:#A8B0BB;stroke-width:5;stroke-miterlimit:10;}
	.st3{fill:#A8B0BB;}
	.st4{fill:#FFFFFF;}
	.st5{fill:#F7F7F7;}
	.st6{fill:#E5E8EB;}
	.st7{fill:none;}
	.st8{fill:#FFFFFF;stroke:#A8B0BB;stroke-width:5;stroke-miterlimit:10;}
	.st9{fill:#42BEFC;}
	.st10{fill:#F9914B;}
	.st11{fill:#A0B4F9;}
	.st12{fill:#FC7370;}
	.st13{fill:#16A085;stroke:#FFFFFF;stroke-width:0.5;stroke-miterlimit:10;}
	.st14{opacity:0.55;fill:#16A085;enable-background:new    ;}
</style>
<g>
	<path class="st0" d="M19.8,90.2L19.8,90.2c-0.3,0.6-1,0.7-1.5,0.4L10.5,86c-0.6-0.3-0.7-1-0.4-1.5l0,0c0.3-0.6,1-0.7,1.5-0.4
		l7.8,4.6C19.9,88.9,20.1,89.6,19.8,90.2z"/>
	<path class="st0" d="M24.1,86.5L24.1,86.5c-0.4,0.4-1.1,0.4-1.6,0l-3.6-3.6c-0.4-0.4-0.4-1.1,0-1.6l0,0c0.4-0.4,1.1-0.4,1.6,0
		l3.6,3.6C24.5,85.3,24.5,86,24.1,86.5z"/>
	<path class="st0" d="M18.6,94.2L18.6,94.2c0,0.6-0.6,1.1-1.2,1L11.7,95c-0.6,0-1.1-0.6-1-1.2l0,0c0-0.6,0.6-1.1,1.2-1l5.7,0.2
		C18.2,93,18.7,93.6,18.6,94.2z"/>
	<path class="st0" d="M251,63.5L251,63.5c-0.4-0.5-0.3-1.2,0.1-1.6l6.8-5.9c0.5-0.4,1.2-0.3,1.6,0.1l0,0c0.4,0.5,0.3,1.2-0.1,1.6
		l-6.8,5.9C252.2,64,251.5,63.9,251,63.5z"/>
	<path class="st0" d="M253.2,68.7L253.2,68.7c-0.3-0.6-0.1-1.3,0.5-1.5l4.5-2.2c0.6-0.3,1.3-0.1,1.5,0.5l0,0
		c0.3,0.6,0.1,1.3-0.5,1.5l-4.5,2.2C254.1,69.4,253.5,69.2,253.2,68.7z"/>
	<path class="st0" d="M247.5,61.1L247.5,61.1c-0.6-0.2-0.8-0.8-0.6-1.5l2-5.4c0.2-0.6,0.8-0.8,1.5-0.6l0,0c0.6,0.2,0.8,0.8,0.6,1.5
		l-2,5.4C248.8,61,248.2,61.3,247.5,61.1z"/>
	<path class="st1" d="M64.6,183.4h143.3c0,0-25.8,37.9-68.1,38.1c-42.3,0.2-0.9,0-0.9,0S90.8,222.5,64.6,183.4z"/>
	<circle class="st2" cx="137" cy="135" r="85.1"/>
	<rect x="37.6" y="185.2" class="st3" width="10.9" height="5"/>
	<rect x="225.1" y="185.2" class="st3" width="10.9" height="5"/>
	<polygon class="st4" points="168.1,48.1 150.7,144.3 88.3,144.3 67.7,141 67.5,52.5 72.5,48.2 	"/>
	<polygon class="st5" points="168.1,48.1 124.7,144.3 187.1,144.3 207.7,141 207.9,52.5 202.9,48.2 	"/>
	<polygon class="st6" points="204.7,59.7 68.2,59.7 68.9,48.1 203.6,48.4 	"/>
	<path class="st2" d="M199.1,48.1H73.6c-3.8,0-6.7,2.9-6.7,6.7v88.1h139v-88C205.8,51.1,202.9,48.1,199.1,48.1z"/>
	<line class="st7" x1="91.1" y1="187.2" x2="184.3" y2="187.2"/>
	<path class="st3" d="M183.6,185.2H90.4 M87.6,185.2H50.9v5h37h2.9h92.5h2.9h37v-5h-36.7"/>
	<path class="st8" d="M163.4,178.9h-59.2c-3.8,0-6.7,2.9-6.7,6.7v2.2h72.9v-2.2C170.1,181.7,167.3,178.9,163.4,178.9z"/>
	<polygon class="st8" points="156.3,178.2 111.7,178.2 120.5,165.6 147.3,165.6 	"/>
	<path class="st8" d="M66.8,142.9v15.9c0,3.8,2.9,6.7,6.7,6.7h125.6c3.8,0,6.7-2.9,6.7-6.7v-15.9H66.8z"/>
	<g>
		<circle class="st3" cx="126.7" cy="154.4" r="2"/>
		<circle class="st3" cx="133.6" cy="154.4" r="2"/>
		<circle class="st3" cx="140.5" cy="154.4" r="2"/>
	</g>
	<circle class="st9" cx="92.7" cy="79.4" r="2.7"/>
	<circle class="st10" cx="92.7" cy="89.8" r="2.7"/>
	<circle class="st11" cx="92.7" cy="100.3" r="2.7"/>
	<circle class="st12" cx="92.7" cy="111.2" r="2.7"/>
	<rect x="99.9" y="77.9" class="st6" width="48.2" height="3.6"/>
	<rect x="99.9" y="88.3" class="st6" width="48.2" height="3.6"/>
	<rect x="99.9" y="98.8" class="st6" width="48.2" height="3.6"/>
	<circle class="st11" cx="92.7" cy="121.3" r="2.7"/>
	<rect x="99.9" y="119.7" class="st6" width="48.2" height="3.6"/>
	<rect x="99.9" y="109.7" class="st6" width="26.4" height="3.6"/>
	<rect x="154.9" y="78.3" class="st6" width="31.9" height="13.7"/>
	<rect x="154.9" y="94.3" class="st6" width="31.9" height="13.7"/>
	<rect x="154.9" y="110.4" class="st6" width="31.9" height="13.7"/>
	<polygon class="st4" points="25,97.1 25,117.6 26.6,122.5 34.8,125 97,123.8 105.4,134.3 106.9,123.8 112.9,123.2 116.3,115.6 
		116.3,99.2 111.8,90.5 30.8,90.5 	"/>
	<path class="st13" d="M105.9,90.2H35.2c-5.8,0-10.5,4.7-10.5,10.5v15.4c0,5.8,4.7,10.5,10.5,10.5h59.6l8.9,8.9
		c0.3,0.3,0.6,0.4,1,0.4c0.2,0,0.3,0,0.6-0.1c0.5-0.2,0.8-0.7,0.8-1.3v-8c5.7-0.1,10.3-4.7,10.3-10.5v-15.5
		C116.3,94.8,111.7,90.2,105.9,90.2z M113.5,116.1c0,4.3-3.4,7.7-7.7,7.7h-1.2c-0.8,0-1.4,0.6-1.4,1.4v5.9l-7-7
		c-0.3-0.3-0.6-0.4-1-0.4h-60c-4.3,0-7.7-3.4-7.7-7.7v-15.5c0-4.3,3.4-7.7,7.7-7.7h70.6c4.3,0,7.7,3.4,7.7,7.7L113.5,116.1
		L113.5,116.1z"/>
	<rect x="38.8" y="101.6" class="st14" width="57.6" height="2"/>
	<rect x="38.8" y="107.2" class="st14" width="42.7" height="2.2"/>
	<rect x="38.8" y="112.8" class="st14" width="33.3" height="2.1"/>
	<polygon class="st4" points="248.7,71.3 248.7,91.8 247,96.6 238.8,99.2 176.7,98 168.2,108.5 166.7,98 160.8,97.3 157.3,89.8 
		157.3,73.3 161.9,64.7 242.9,64.7 	"/>
	<path class="st13" d="M157.3,74.8v15.5c0,5.7,4.6,10.3,10.3,10.5v8c0,0.6,0.3,1,0.8,1.3c0.1,0.1,0.3,0.1,0.6,0.1s0.7-0.1,1-0.4
		l8.9-8.9h59.6c5.8,0,10.5-4.7,10.5-10.5V74.8c0-5.8-4.7-10.5-10.5-10.5h-70.7C162,64.3,157.3,69,157.3,74.8z M160.1,90.3V74.8
		c0-4.3,3.4-7.7,7.7-7.7h70.6c4.3,0,7.7,3.4,7.7,7.7v15.5c0,4.3-3.4,7.7-7.7,7.7h-60.2c-0.3,0-0.7,0.1-1,0.4l-7,7v-5.9
		c0-0.8-0.6-1.4-1.4-1.4h-1.2C163.6,98,160.1,94.5,160.1,90.3L160.1,90.3z"/>
	<rect x="176.9" y="75.1" class="st14" width="57.6" height="2"/>
	<rect x="191.9" y="80.7" class="st14" width="42.7" height="2.2"/>
	<rect x="201.3" y="86.2" class="st14" width="33.3" height="2.1"/>
	<circle class="st4" cx="78.7" cy="54.8" r="2"/>
	<circle class="st4" cx="85.7" cy="54.8" r="2"/>
	<circle class="st4" cx="92.7" cy="54.8" r="2"/>
</g>
</svg>
