<?xml version="1.0" encoding="utf-8"?>
<svg xmlns="http://www.w3.org/2000/svg"
	xmlns:xlink="http://www.w3.org/1999/xlink"
	width="38px" height="35px" viewBox="0 0 38 35">
<path fillRule="evenodd" d="M 37.05 11.08C 37.05 11.08 35.66 9 35.66 9 35.66 9 35.66 5.44 35.66 5.44 35.66 5.42 35.66 5.39 35.66 5.37 35.66 5.36 35.66 5.35 35.65 5.34 35.65 5.33 35.65 5.31 35.65 5.3 35.65 5.29 35.64 5.28 35.64 5.27 35.64 5.26 35.64 5.25 35.63 5.23 35.63 5.22 35.63 5.21 35.62 5.2 35.62 5.19 35.62 5.18 35.61 5.17 35.61 5.16 35.6 5.15 35.6 5.14 35.59 5.12 35.58 5.1 35.57 5.08 35.57 5.08 35.56 5.07 35.56 5.06 35.55 5.05 35.55 5.04 35.54 5.02 35.53 5.02 35.53 5.01 35.52 5 35.51 4.99 35.51 4.98 35.5 4.97 35.49 4.96 35.49 4.95 35.48 4.95 35.47 4.94 35.46 4.93 35.45 4.92 35.45 4.91 35.44 4.9 35.43 4.9 35.42 4.89 35.41 4.88 35.4 4.87 35.39 4.86 35.39 4.86 35.38 4.85 35.37 4.84 35.35 4.83 35.33 4.81 35.33 4.81 35.32 4.81 35.32 4.81 35.3 4.8 35.29 4.79 35.27 4.78 35.26 4.77 35.26 4.77 35.25 4.76 35.24 4.76 35.22 4.75 35.21 4.75 35.2 4.74 35.19 4.74 35.18 4.74 35.17 4.73 35.16 4.73 35.15 4.72 35.14 4.72 35.13 4.72 35.11 4.71 35.11 4.71 35.11 4.71 35.1 4.71 35.1 4.71 18.44 0.16 18.44 0.16 18.31 0.13 18.17 0.13 18.04 0.16 18.04 0.16 1.38 4.71 1.38 4.71 1.05 4.8 0.82 5.1 0.82 5.44 0.82 5.78 1.05 6.08 1.38 6.17 1.38 6.17 7.65 7.88 7.65 7.88 7.65 7.88 7.65 16.05 7.65 16.05 7.65 16.26 7.73 16.45 7.88 16.59 6.74 18.46 6.13 20.62 6.13 22.87 6.13 26.1 7.39 29.15 9.68 31.44 11.97 33.73 15.01 34.99 18.24 34.99 21.48 34.99 24.52 33.73 26.81 31.44 29.09 29.15 30.35 26.1 30.35 22.87 30.35 20.62 29.75 18.46 28.61 16.59 28.75 16.45 28.84 16.26 28.84 16.05 28.84 16.05 28.84 7.88 28.84 7.88 28.84 7.88 34.15 6.43 34.15 6.43 34.15 6.43 34.15 9 34.15 9 34.15 9 32.76 11.08 32.76 11.08 32.68 11.21 32.63 11.35 32.63 11.5 32.63 11.5 32.63 15.29 32.63 15.29 32.63 15.71 32.97 16.05 33.39 16.05 33.39 16.05 36.42 16.05 36.42 16.05 36.84 16.05 37.18 15.71 37.18 15.29 37.18 15.29 37.18 11.5 37.18 11.5 37.18 11.35 37.13 11.21 37.05 11.08ZM 9.47 16.91C 10.23 17.03 11.2 17.23 12.21 17.47 11.87 18.84 11.59 20.42 11.52 22.12 11.52 22.12 7.67 22.12 7.67 22.12 7.8 20.24 8.42 18.45 9.47 16.91ZM 9.01 28.09C 8.25 26.73 7.79 25.22 7.67 23.64 7.67 23.64 11.53 23.64 11.53 23.64 11.59 25.26 11.85 26.77 12.17 28.09 12.17 28.09 9.01 28.09 9.01 28.09ZM 10.75 30.37C 10.51 30.12 10.27 29.87 10.06 29.6 10.06 29.6 12.6 29.6 12.6 29.6 12.75 30.08 12.9 30.52 13.05 30.92 13.27 31.5 13.49 32.01 13.69 32.45 12.61 31.94 11.62 31.24 10.75 30.37ZM 17.49 29.6C 17.49 29.6 17.49 33.45 17.49 33.45 16.9 33.4 16.32 33.31 15.75 33.18 15.46 32.66 14.8 31.38 14.2 29.6 14.2 29.6 17.49 29.6 17.49 29.6 17.49 29.6 17.49 29.6 17.49 29.6ZM 17.49 28.09C 17.49 28.09 13.74 28.09 13.74 28.09 13.38 26.76 13.11 25.25 13.04 23.64 13.04 23.64 17.49 23.64 17.49 23.64 17.49 23.64 17.49 28.09 17.49 28.09ZM 17.49 22.12C 17.49 22.12 13.04 22.12 13.04 22.12 13.1 20.58 13.36 19.13 13.69 17.84 15.12 18.21 16.52 18.6 17.49 18.89 17.49 18.89 17.49 22.12 17.49 22.12 17.49 22.12 17.49 22.12 17.49 22.12ZM 11.44 15.74C 11.44 15.74 11.44 10.74 11.44 10.74 11.44 10.33 11.1 9.99 10.68 9.99 10.26 9.99 9.93 10.33 9.93 10.74 9.93 10.74 9.93 15.45 9.93 15.45 9.65 15.41 9.4 15.37 9.16 15.34 9.16 15.34 9.16 8.29 9.16 8.29 9.16 8.29 18.04 10.72 18.04 10.72 18.11 10.73 18.18 10.74 18.24 10.74 18.31 10.74 18.38 10.73 18.44 10.72 18.44 10.72 27.33 8.29 27.33 8.29 27.33 8.29 27.33 15.34 27.33 15.34 24.71 15.64 19.4 17.19 18.24 17.53 17.36 17.27 14.11 16.32 11.44 15.74ZM 23.45 22.12C 23.45 22.12 19 22.12 19 22.12 19 22.12 19 18.89 19 18.89 19.97 18.6 21.37 18.21 22.8 17.84 23.13 19.13 23.38 20.58 23.45 22.12ZM 20.73 33.18C 20.17 33.31 19.59 33.4 19 33.45 19 33.45 19 29.6 19 29.6 19 29.6 22.29 29.6 22.29 29.6 21.69 31.38 21.02 32.66 20.73 33.18ZM 19 28.09C 19 28.09 19 23.64 19 23.64 19 23.64 23.45 23.64 23.45 23.64 23.38 25.25 23.1 26.76 22.75 28.09 22.75 28.09 19 28.09 19 28.09ZM 25.74 30.37C 24.87 31.24 23.87 31.94 22.79 32.45 23 32.01 23.21 31.5 23.43 30.92 23.58 30.52 23.74 30.08 23.89 29.6 23.89 29.6 26.43 29.6 26.43 29.6 26.21 29.87 25.98 30.12 25.74 30.37ZM 27.47 28.09C 27.47 28.09 24.31 28.09 24.31 28.09 24.64 26.77 24.9 25.26 24.96 23.64 24.96 23.64 28.81 23.64 28.81 23.64 28.7 25.22 28.24 26.73 27.47 28.09ZM 28.81 22.12C 28.81 22.12 24.96 22.12 24.96 22.12 24.9 20.42 24.62 18.84 24.27 17.48 25.29 17.23 26.26 17.03 27.01 16.91 28.06 18.45 28.68 20.24 28.81 22.12ZM 17.49 6.2C 17.49 6.2 29.25 6.2 29.25 6.2 29.25 6.2 18.24 9.2 18.24 9.2 18.24 9.2 4.46 5.44 4.46 5.44 4.46 5.44 18.24 1.68 18.24 1.68 18.24 1.68 29.25 4.68 29.25 4.68 29.25 4.68 17.49 4.68 17.49 4.68 17.08 4.68 16.74 5.02 16.74 5.44 16.74 5.86 17.08 6.2 17.49 6.2ZM 35.66 14.53C 35.66 14.53 34.15 14.53 34.15 14.53 34.15 14.53 34.15 11.73 34.15 11.73 34.15 11.73 34.91 10.59 34.91 10.59 34.91 10.59 35.66 11.73 35.66 11.73 35.66 11.73 35.66 14.53 35.66 14.53Z" fill="rgb(145,145,145)"/></svg>