<?xml version="1.0" encoding="utf-8"?>
<svg xmlns="http://www.w3.org/2000/svg"
	xmlns:xlink="http://www.w3.org/1999/xlink"
	width="38px" height="35px" viewBox="0 0 38 35">
<path fillRule="evenodd" d="M 35.61 28.62C 35.61 28.62 30.04 28.62 30.04 28.62 30.04 28.62 31.08 31.35 31.08 31.35 31.08 31.35 31.08 31.35 31.08 31.35 31.12 31.47 31.15 31.59 31.15 31.73 31.16 31.95 31.07 32.21 30.87 32.39 30.68 32.56 30.44 32.63 30.24 32.62 30.17 32.62 30.1 32.62 30.04 32.61 30.04 32.61 28.33 32.3 28.33 32.3 28.33 32.3 28.29 32.31 28.29 32.31 28.29 32.31 28.24 32.34 28.24 32.34 28.24 32.34 27.17 33.69 27.17 33.69 27.17 33.69 27.17 33.69 27.17 33.69 27.09 33.79 26.99 33.88 26.87 33.95 26.74 34.03 26.58 34.08 26.41 34.08 26.2 34.08 25.98 33.99 25.84 33.86 25.69 33.74 25.61 33.59 25.55 33.44 25.55 33.44 24.13 29.72 24.13 29.72 24.13 29.72 22.71 33.44 22.71 33.44 22.66 33.59 22.57 33.74 22.42 33.86 22.28 33.99 22.06 34.08 21.85 34.08 21.68 34.08 21.52 34.03 21.4 33.95 21.27 33.88 21.17 33.79 21.09 33.69 21.09 33.69 20.02 32.34 20.02 32.34 20.02 32.34 19.99 32.32 19.99 32.32 19.99 32.32 19.93 32.3 19.93 32.3 19.93 32.3 18.23 32.61 18.23 32.61 18.16 32.62 18.09 32.62 18.03 32.62 17.83 32.63 17.58 32.56 17.39 32.39 17.2 32.21 17.1 31.95 17.11 31.73 17.11 31.59 17.14 31.47 17.18 31.35 17.18 31.35 17.18 31.35 17.18 31.35 17.18 31.35 18.22 28.62 18.22 28.62 18.22 28.62 2.39 28.62 2.39 28.62 1.39 28.62 0.57 27.81 0.57 26.81 0.57 26.81 0.57 2.7 0.57 2.7 0.57 1.7 1.39 0.89 2.39 0.89 2.39 0.89 35.61 0.89 35.61 0.89 36.61 0.89 37.43 1.7 37.43 2.7 37.43 2.7 37.43 26.81 37.43 26.81 37.43 27.81 36.61 28.62 35.61 28.62ZM 26.56 32.26C 26.56 32.26 27.17 31.49 27.17 31.49 27.17 31.49 27.18 31.49 27.18 31.49 27.33 31.29 27.51 31.17 27.71 31.08 27.9 31 28.11 30.94 28.34 30.94 28.41 30.94 28.48 30.95 28.56 30.96 28.56 30.96 29.54 31.14 29.54 31.14 29.54 31.14 27.9 26.84 27.9 26.84 27.05 27.46 26.04 27.88 24.95 28.04 24.95 28.04 26.56 32.26 26.56 32.26ZM 29.24 21.54C 29.24 18.67 26.89 16.33 24.01 16.33 21.12 16.33 18.77 18.67 18.77 21.54 18.77 24.42 21.12 26.76 24.01 26.76 26.89 26.76 29.24 24.42 29.24 21.54ZM 30.39 23.17C 30.39 23.17 31.97 23.17 31.97 23.17 31.97 23.17 31.97 5.87 31.97 5.87 31.97 5.87 6.03 5.87 6.03 5.87 6.03 5.87 6.03 23.17 6.03 23.17 6.03 23.17 17.62 23.17 17.62 23.17 17.49 22.65 17.41 22.11 17.41 21.54 17.41 17.92 20.36 14.97 24.01 14.97 27.65 14.97 30.61 17.92 30.61 21.54 30.61 22.11 30.53 22.65 30.39 23.17ZM 19.7 30.96C 19.78 30.95 19.85 30.94 19.93 30.94 20.16 30.94 20.36 31 20.56 31.08 20.75 31.17 20.93 31.29 21.09 31.49 21.09 31.49 21.09 31.49 21.09 31.49 21.09 31.49 21.7 32.26 21.7 32.26 21.7 32.26 23.3 28.08 23.3 28.08 22.2 27.96 21.18 27.57 20.31 26.99 20.31 26.99 18.72 31.14 18.72 31.14 18.72 31.14 19.7 30.96 19.7 30.96ZM 36.07 2.7C 36.07 2.46 35.86 2.25 35.61 2.25 35.61 2.25 2.39 2.25 2.39 2.25 2.14 2.25 1.93 2.46 1.93 2.7 1.93 2.7 1.93 26.81 1.93 26.81 1.93 27.06 2.14 27.26 2.39 27.26 2.39 27.26 18.74 27.26 18.74 27.26 18.74 27.26 19.21 26.04 19.21 26.04 18.78 25.59 18.42 25.08 18.13 24.53 18.13 24.53 5.12 24.53 5.12 24.53 4.87 24.53 4.66 24.32 4.66 24.07 4.66 24.07 4.66 4.97 4.66 4.97 4.66 4.72 4.87 4.51 5.12 4.51 5.12 4.51 32.88 4.51 32.88 4.51 33.13 4.51 33.34 4.72 33.34 4.97 33.34 4.97 33.34 24.07 33.34 24.07 33.34 24.32 33.13 24.53 32.88 24.53 32.88 24.53 29.88 24.53 29.88 24.53 29.64 25.01 29.33 25.45 28.98 25.85 28.98 25.85 29.52 27.26 29.52 27.26 29.52 27.26 35.61 27.26 35.61 27.26 35.86 27.26 36.07 27.06 36.07 26.81 36.07 26.81 36.07 2.7 36.07 2.7ZM 22.64 10.44C 22.64 10.44 9.9 10.44 9.9 10.44 9.52 10.44 9.21 10.14 9.21 9.76 9.21 9.39 9.52 9.08 9.9 9.08 9.9 9.08 22.64 9.08 22.64 9.08 23.02 9.08 23.32 9.39 23.32 9.76 23.32 10.14 23.02 10.44 22.64 10.44ZM 9.9 13.61C 9.9 13.61 17.18 13.61 17.18 13.61 17.56 13.61 17.86 13.92 17.86 14.29 17.86 14.67 17.56 14.97 17.18 14.97 17.18 14.97 9.9 14.97 9.9 14.97 9.52 14.97 9.21 14.67 9.21 14.29 9.21 13.92 9.52 13.61 9.9 13.61ZM 24.01 18.64C 25.64 18.64 26.96 19.96 26.96 21.58 26.96 23.21 25.64 24.53 24.01 24.53 22.37 24.53 21.05 23.21 21.05 21.58 21.05 19.96 22.37 18.64 24.01 18.64ZM 24.01 23.17C 24.88 23.17 25.6 22.46 25.6 21.58 25.6 20.71 24.88 20 24.01 20 23.13 20 22.41 20.71 22.41 21.58 22.41 22.46 23.13 23.17 24.01 23.17Z" fill="rgb(145,145,145)"/></svg>