<?xml version="1.0" encoding="utf-8"?>
<!-- Generator: Adobe Illustrator 22.1.0, SVG Export Plug-In . SVG Version: 6.00 Build 0)  -->
<svg version="1.1" id="Layer_1" xmlns="http://www.w3.org/2000/svg" xmlns:xlink="http://www.w3.org/1999/xlink" x="0px" y="0px"
	 viewBox="0 0 250 250" style="enable-background:new 0 0 250 250;" xml:space="preserve">
<style type="text/css">
	.st0{opacity:0.7;fill:#E5E8EB;enable-background:new    ;}
	.st1{opacity:0.4;fill:#E5E8EB;enable-background:new    ;}
	.st2{fill:none;stroke:#A8B0BB;stroke-width:5;stroke-miterlimit:10;}
	.st3{fill:#A8B0BB;}
	.st4{fill:none;}
	.st5{fill:#FFFFFF;}
	.st6{fill:#A8B0BB;stroke:#FFFFFF;stroke-width:3;stroke-miterlimit:10;}
	.st7{fill:#16A085;}
	.st8{fill:#F9914B;}
	.st9{opacity:0.5;fill:none;stroke:#A8B0BB;stroke-width:2;stroke-miterlimit:10;enable-background:new    ;}
</style>
<g>
	<path class="st0" d="M141.7,163.5H81.6c-9.6,0-17.3-7.8-17.3-17.3V68.8c0-9.6,7.8-17.3,17.3-17.3h60.1c9.6,0,17.3,7.8,17.3,17.3
		v77.3C159.1,155.6,151.2,163.5,141.7,163.5z"/>
	<path class="st1" d="M60.1,172h142.1c0,0-25.6,37.9-67.5,38.1c-41.9,0.2-0.9,0-0.9,0S86,211.1,60.1,172z"/>
	<circle class="st2" cx="132.4" cy="125" r="85.2"/>
	<rect x="33.7" y="175.2" class="st3" width="10.9" height="5.1"/>
	<rect x="221.3" y="175.2" class="st3" width="10.9" height="5.1"/>
	<line class="st4" x1="82.3" y1="175.1" x2="175.5" y2="175.1"/>
	<path class="st3" d="M179.7,175.2H86.5 M83.7,175.2H47v5.1h37h2.9h92.5h2.9h37v-5.1h-36.7"/>
	<circle class="st5" cx="163.6" cy="161.6" r="29.6"/>
	<path class="st6" d="M164.6,120.3V77.7c0-10-8.2-18.1-18.1-18.1H82.6c-5.7,0-10.7,5-10.7,11v84.9c0,10,8.2,18.1,18.1,18.1h38.3
		c2.4,0,4.7,1.3,6.1,3.4c5.9,9.5,16.3,16,28.6,16c18.4,0,33.4-15,33.4-33.4c-0.3-15.8-11.5-28.8-26.2-32.3
		C166.9,126.5,164.6,123.6,164.6,120.3z M121.4,167.2H89.7c-6.6,0-11.8-5.3-11.8-11.8V77.7c0.6-11.9,0.6-11.9,11.8-11.8h56.7
		c6.6,0,11.8,5.3,11.8,11.8v43.5c0,3.1-3.1,5.9-6.1,6.8c-2.9,0.8-5.6,2.1-8.1,3.8c-0.2,0.1-0.3,0.2-0.5,0.3l-4.2,3.4
		c-0.1,0.1-0.3,0.3-0.5,0.4c-6.5,6-10.5,14.6-10.5,24.2l0,0C128.5,163.9,125.3,167.2,121.4,167.2z M164.9,186.4
		c-16.9,1.5-30.8-12.4-29.3-29.3c1.1-12.8,11.6-23.4,24.5-24.5c16.9-1.5,30.8,12.4,29.3,29.3C188.3,174.8,177.8,185.3,164.9,186.4z"
		/>
	<path class="st7" d="M150,153.7h25.8c0.6,0,1-0.6,1-1.3c0-0.7-0.5-1.3-1-1.3h-26.7c-0.6,0-0.1,0.6-0.1,1.3s0.3,1.1,0.9,1.1"/>
	<path class="st7" d="M177.2,147.1V146h-28.4c-0.3,0-0.6,0.1-0.8,0.3s-0.3,0.5-0.3,0.8v4.4c0,0.3,0.1,0.6,0.3,0.8l10.6,10.6v10.5
		c0,0.3,0.1,0.6,0.3,0.8l6.6,6.6c0.3,0.3,0.8,0.4,1.2,0.2c0.4-0.1,0.7-0.6,0.7-1v-8.7v-8.3l10.6-10.6c0.2-0.2,0.3-0.5,0.3-0.8v-4.4
		c0-0.3-0.1-0.6-0.3-0.8c-0.2-0.2-0.6-0.3-0.8-0.3L177.2,147.1h-1v3.9l-10.6,10.6c-0.2,0.2-0.3,0.5-0.3,0.8v8.7v6.1l-4.4-4.4v-10.5
		c0-0.3-0.1-0.6-0.3-0.8L149.8,151v-2.9h27.4V147.1h-1.1H177.2z"/>
	<polygon class="st8" points="218.7,60.4 218.7,60.3 217.6,60 216.7,63.8 213.1,62.9 213,62.9 212.7,64 216.4,64.8 215.6,68.5 
		215.5,68.6 216.7,68.9 217.6,65.2 221.2,66 221.3,66 221.5,64.9 217.8,64.1 	"/>
	<polygon class="st8" points="235.9,92.5 235.9,92.4 234.8,92.1 233.9,95.9 230.3,95 230.2,95 229.9,96.1 233.7,96.9 232.8,100.6 
		232.8,100.7 233.9,100.9 234.8,97.3 238.4,98.1 238.5,98.1 238.8,97 235,96.1 	"/>
	<polygon class="st8" points="29.4,116.3 26.9,119.8 28,120.4 28,120.4 30.4,117.1 33.8,119.4 34.5,118.4 34.4,118.4 31,116 
		33.5,112.6 32.4,111.9 32.4,112 30.1,115.3 26.6,112.9 25.9,114 26,114 	"/>
	<polygon class="st8" points="28.6,153 26.1,156.4 27.2,157.1 27.3,157 29.6,153.8 33,156.1 33.8,155.1 33.6,155 30.3,152.7 
		32.7,149.3 31.7,148.6 31.6,148.7 29.3,152 25.9,149.6 25.2,150.6 25.2,150.7 	"/>
	<circle class="st3" cx="83.4" cy="69.7" r="1.9"/>
	<circle class="st3" cx="89.9" cy="69.7" r="1.9"/>
	<circle class="st3" cx="96.4" cy="69.7" r="1.9"/>
	<circle class="st3" cx="102.7" cy="98" r="4.5"/>
	<circle class="st3" cx="133.4" cy="98" r="4.5"/>
	<path class="st3" d="M109.9,123.1c1.8-2.7,4.9-4.4,8.3-4.4c3.4,0,6.5,1.7,8.3,4.4h3.2c-2.1-4.3-6.4-7.2-11.5-7.2
		c-5.1,0-9.4,2.9-11.5,7.2H109.9z"/>
	<rect x="75.5" y="75.3" class="st3" width="85" height="3.3"/>
	<ellipse transform="matrix(0.995 -0.1001 0.1001 0.995 -6.5485 24.1623)" class="st9" cx="237.5" cy="77.3" rx="2.9" ry="2.9"/>
	<ellipse transform="matrix(0.995 -0.1001 0.1001 0.995 -10.9228 24.1016)" class="st9" cx="234.7" cy="120.9" rx="2.9" ry="2.9"/>
	<circle class="st9" cx="23.4" cy="93.1" r="2.9"/>
	<circle class="st9" cx="13.2" cy="136.8" r="2.9"/>
</g>
</svg>
