<?xml version="1.0" encoding="utf-8"?>
<svg xmlns="http://www.w3.org/2000/svg"
	xmlns:xlink="http://www.w3.org/1999/xlink"
	width="11px" height="11px" viewBox="0 0 11 11">
<path fillRule="evenodd" d="M 10.75 6.88C 10.75 6.88 10.75 10.75 10.75 10.75 10.75 10.75 8.5 10.75 8.5 10.75 8.5 10.75 8.5 7.14 8.5 7.14 8.5 6.23 8.17 5.61 7.36 5.61 6.74 5.61 6.37 6.03 6.2 6.43 6.15 6.58 6.13 6.78 6.13 6.98 6.13 6.98 6.13 10.75 6.13 10.75 6.13 10.75 3.88 10.75 3.88 10.75 3.88 10.75 3.91 4.64 3.88 4 3.88 4 6.13 4 6.13 4 6.13 4 6.13 4.96 6.13 4.96 6.13 4.97 6.12 4.97 6.11 4.98 6.11 4.98 6.13 4.98 6.13 4.98 6.13 4.98 6.13 4.96 6.13 4.96 6.43 4.5 6.96 3.84 8.16 3.84 9.64 3.84 10.75 4.81 10.75 6.88ZM 1.52 0.75C 0.75 0.75 0.25 1.25 0.25 1.92 0.25 2.56 0.74 3.08 1.49 3.08 1.49 3.08 1.51 3.08 1.51 3.08 2.29 3.08 2.78 2.56 2.78 1.92 2.77 1.25 2.29 0.75 1.52 0.75ZM 0.38 10.75C 0.38 10.75 2.63 10.75 2.63 10.75 2.63 10.75 2.63 4 2.63 4 2.63 4 0.38 4 0.38 4 0.38 4 0.38 10.75 0.38 10.75Z" fill="rgb(117,117,117)"/></svg>