<?xml version="1.0" encoding="utf-8"?>
<svg xmlns="http://www.w3.org/2000/svg"
	xmlns:xlink="http://www.w3.org/1999/xlink"
	width="13px" height="11px" viewBox="0 0 13 11">
<path fillRule="evenodd" d="M 12.75 1.94C 12.26 2.15 11.77 2.28 11.28 2.33 11.83 2 12.21 1.54 12.4 0.94 11.89 1.24 11.35 1.44 10.78 1.55 10.27 1.02 9.64 0.75 8.9 0.75 8.19 0.75 7.59 1 7.09 1.49 6.59 1.98 6.34 2.58 6.34 3.27 6.34 3.46 6.36 3.65 6.4 3.85 5.36 3.8 4.38 3.54 3.46 3.07 2.54 2.61 1.76 1.99 1.12 1.21 0.89 1.6 0.77 2.03 0.77 2.49 0.77 2.92 0.88 3.32 1.08 3.69 1.29 4.06 1.57 4.36 1.91 4.59 1.5 4.57 1.12 4.46 0.76 4.27 0.76 4.27 0.76 4.3 0.76 4.3 0.76 4.91 0.95 5.44 1.34 5.9 1.73 6.36 2.22 6.65 2.81 6.77 2.59 6.83 2.36 6.86 2.14 6.86 1.99 6.86 1.83 6.85 1.65 6.82 1.82 7.33 2.12 7.74 2.56 8.07 3 8.39 3.49 8.56 4.05 8.57 3.12 9.29 2.06 9.65 0.87 9.65 0.64 9.65 0.43 9.64 0.25 9.62 1.44 10.37 2.75 10.75 4.18 10.75 5.09 10.75 5.95 10.61 6.75 10.32 7.54 10.04 8.23 9.66 8.79 9.18 9.36 8.71 9.85 8.16 10.26 7.54 10.67 6.92 10.97 6.27 11.17 5.6 11.37 4.92 11.47 4.25 11.47 3.57 11.47 3.42 11.47 3.32 11.47 3.24 11.97 2.88 12.4 2.45 12.75 1.94Z" fill="rgb(29,161,241)"/></svg>