<?xml version="1.0" encoding="utf-8"?>
<svg xmlns="http://www.w3.org/2000/svg"
	xmlns:xlink="http://www.w3.org/1999/xlink"
	width="19px" height="19px" viewBox="0 0 19 19">
<clipPath id="clip0"><rect x="0" y="0" width="19" height="19" rx="3"/></clipPath><rect x="0" y="0" width="19" height="19" rx="3" fill="none" stroke="rgb(117,117,117)" stroke-width="2.00px" clip-path="url(#clip0)"/><path fillRule="evenodd" d="M 3.17 8.97C 3.07 9.77 3.15 10.55 3.36 11.27 4.06 13.65 6.26 15.41 8.86 15.44 8.86 15.44 8.86 17 8.86 17 8.86 17.09 8.97 17.13 9.04 17.08 9.04 17.08 12.26 14.72 12.26 14.72 12.31 14.68 12.31 14.6 12.26 14.56 12.26 14.56 9.05 12.21 9.05 12.21 8.97 12.15 8.87 12.2 8.87 12.29 8.87 12.29 8.87 13.84 8.87 13.84 7.15 13.81 5.69 12.76 5.06 11.27 4.82 10.7 4.7 10.08 4.74 9.43 4.78 8.53 5.12 7.71 5.65 7.04 5.94 6.68 5.87 6.16 5.5 5.89 5.15 5.64 4.66 5.71 4.39 6.05 3.73 6.87 3.29 7.87 3.17 8.97ZM 12.44 11.96C 12.98 11.3 13.31 10.47 13.36 9.57 13.39 8.92 13.27 8.29 13.03 7.73 12.4 6.24 10.94 5.18 9.23 5.16 9.23 5.16 9.23 6.72 9.23 6.72 9.23 6.8 9.12 6.85 9.05 6.8 9.05 6.8 5.84 4.44 5.84 4.44 5.78 4.4 5.78 4.32 5.84 4.28 5.84 4.28 9.05 1.92 9.05 1.92 9.12 1.87 9.23 1.92 9.23 2 9.23 2 9.23 3.56 9.23 3.56 11.83 3.59 14.03 5.34 14.73 7.73 14.94 8.45 15.01 9.23 14.92 10.03 14.8 11.13 14.36 12.13 13.7 12.95 13.43 13.3 12.94 13.37 12.59 13.11 12.22 12.84 12.16 12.32 12.44 11.96Z" fill="rgb(117,117,117)"/></svg>