<?xml version="1.0" encoding="utf-8"?>
<svg xmlns="http://www.w3.org/2000/svg"
	xmlns:xlink="http://www.w3.org/1999/xlink"
	width="6px" height="13px" viewBox="0 0 6 13">
<path fillRule="evenodd" d="M 3.92 4.41C 3.92 4.41 3.92 3.38 3.92 3.38 3.92 3.23 3.93 3.11 3.94 3.02 3.96 2.94 3.99 2.86 4.04 2.77 4.09 2.69 4.18 2.64 4.29 2.6 4.41 2.57 4.57 2.56 4.76 2.56 4.76 2.56 5.82 2.56 5.82 2.56 5.82 2.56 5.82 0.5 5.82 0.5 5.82 0.5 4.13 0.5 4.13 0.5 3.15 0.5 2.44 0.73 2.01 1.18 1.59 1.63 1.37 2.29 1.37 3.17 1.37 3.17 1.37 4.41 1.37 4.41 1.37 4.41 0.1 4.41 0.1 4.41 0.1 4.41 0.1 6.46 0.1 6.46 0.1 6.46 1.37 6.46 1.37 6.46 1.37 6.46 1.37 12.41 1.37 12.41 1.37 12.41 3.92 12.41 3.92 12.41 3.92 12.41 3.92 6.46 3.92 6.46 3.92 6.46 5.61 6.46 5.61 6.46 5.61 6.46 5.84 4.41 5.84 4.41 5.84 4.41 3.92 4.41 3.92 4.41Z" fill="rgb(117,117,117)"/></svg>