<?xml version="1.0" encoding="utf-8"?>
<svg xmlns="http://www.w3.org/2000/svg"
	xmlns:xlink="http://www.w3.org/1999/xlink"
	width="14px" height="13px" viewBox="0 0 14 13">
<path fillRule="evenodd" d="M 7.3 0.24C 7.3 0.24 8.94 4.11 8.94 4.11 8.94 4.11 13.12 4.47 13.12 4.47 13.41 4.5 13.53 4.86 13.31 5.05 13.31 5.05 10.13 7.8 10.13 7.8 10.13 7.8 11.09 11.9 11.09 11.9 11.15 12.18 10.84 12.41 10.59 12.25 10.59 12.25 7 10.08 7 10.08 7 10.08 3.4 12.25 3.4 12.25 3.15 12.41 2.84 12.18 2.91 11.9 2.91 11.9 3.86 7.8 3.86 7.8 3.86 7.8 0.69 5.05 0.69 5.05 0.46 4.86 0.58 4.5 0.87 4.47 0.87 4.47 5.06 4.11 5.06 4.11 5.06 4.11 6.69 0.24 6.69 0.24 6.81-0.03 7.19-0.03 7.3 0.24Z" fill="rgb(117,117,117)"/></svg>