<?xml version="1.0" encoding="utf-8"?>
<!-- Generator: Adobe Illustrator 22.1.0, SVG Export Plug-In . SVG Version: 6.00 Build 0)  -->
<svg version="1.1" id="Layer_1" xmlns="http://www.w3.org/2000/svg" xmlns:xlink="http://www.w3.org/1999/xlink" x="0px" y="0px"
	 viewBox="0 0 512 512" style="enable-background:new 0 0 512 512;" xml:space="preserve">
<style type="text/css">
	.st0{fill:#E0E0E0;}
	.st1{fill:#FFFFFF;}
	.st2{fill:#FFDB8A;}
	.st3{fill:none;}
	.st4{fill:#A0815C;}
	.st5{fill:#4B4B4B;}
</style>
<polygon class="st0" points="398.9,481.5 471.5,409.5 471.5,427 415,485.9 "/>
<path class="st1" d="M452.6,490.4"/>
<path class="st2" d="M47.5,111.6L215.3,202l25.2,35.7h-44.4L28.3,147.3c-9.9-5.3-13.5-17.6-8.2-27.5l0,0
	C25.3,110,37.6,106.3,47.5,111.6z"/>
<line class="st3" x1="483" y1="490.4" x2="452.6" y2="490.4"/>
<path d="M232,159.4h-45.6v-45.6H232V159.4z M201.6,144.2h15.2V129h-15.2V144.2z"/>
<path d="M232,315.7h-45.6V270H232V315.7z M201.6,300.5h15.2v-15.2h-15.2V300.5z"/>
<path d="M232,394.6h-45.6V349H232V394.6z M201.6,379.4h15.2v-15.2h-15.2V379.4z"/>
<path class="st4" d="M47.5,111.6c-9.9-5.3-22.2-1.6-27.5,8.2l0,0c-5.3,9.9-1.6,22.2,8.2,27.5L47,157.4l19.2-35.7L47.5,111.6z"/>
<polygon class="st4" points="215.3,202 196.1,237.7 240.5,237.7 "/>
<rect x="256.9" y="127.9" class="st5" width="160.2" height="15.2"/>
<rect x="256.9" y="207" class="st5" width="160.2" height="15.2"/>
<rect x="256.9" y="285.3" class="st5" width="160.2" height="15.2"/>
<path class="st5" d="M232,113.7h-45.6v45.6H232V113.7z M216.8,144.2h-15.2V129h15.2V144.2L216.8,144.2z"/>
<path class="st5" d="M232,270h-45.6v45.6H232V270z M216.8,300.5h-15.2v-15.2h15.2V300.5L216.8,300.5z"/>
<rect x="256.9" y="365.2" class="st5" width="160.2" height="15.2"/>
<path class="st5" d="M186.4,394.6H232V349h-45.6V394.6z M201.6,364.2h15.2v15.2h-15.2V364.2z"/>
<path class="st5" d="M255.2,245.3l-34.7-49.2L51.1,104.9c-13.5-7.3-30.5-2.2-37.8,11.3c-3.5,6.6-4.3,14.1-2.2,21.2s6.9,13,13.5,16.5
	l169.5,91.3L255.2,245.3L255.2,245.3z M190.3,225.9l-133-71.6l12-22.3l133,71.6L190.3,225.9z M225.9,230.1h-20.5l8.9-16.5
	L225.9,230.1z M25.8,133.1c-1-3.2-0.6-6.7,1-9.7c3.3-6.2,11-8.5,17.2-5.1l12.1,6.5l-12,22.3L32,140.6
	C28.9,139,26.7,136.4,25.8,133.1z"/>
<path d="M479.4,52.9"/>
<path class="st5" d="M120.1,28.1v86.5c0,5,4,9,9,9c5,0,9-4,9-9V46.1h328.3v346.3h-74c-2.6,0-4.8,2.1-4.8,4.8v76.6H138.1V246
	c0-5-4-9-9-9s-9,4-9,9v245.8h364.3V28.1H120.1z M403.1,408h48.7l-48.7,48.7V408z M408,473.8l58.3-58.3v58.3H408z"/>
</svg>
