<?xml version="1.0" encoding="utf-8"?>
<svg xmlns="http://www.w3.org/2000/svg"
	xmlns:xlink="http://www.w3.org/1999/xlink"
	width="38px" height="33px" viewBox="0 0 38 33">
<path fillRule="evenodd" d="M 36.72 4.83C 36.26 4.35 35.68 4.11 35 4.11 35 4.11 25.88 4.11 25.88 4.11 25.88 4.11 25.88 1.09 25.88 1.09 25.88 0.47 25.4-0.03 24.78-0.03 24.78-0.03 24.66-0.03 24.66-0.03 24.66-0.03 24.54-0.03 24.54-0.03 24.54-0.03 13.46-0.03 13.46-0.03 13.46-0.03 13.34-0.03 13.34-0.03 13.34-0.03 13.22-0.03 13.22-0.03 12.6-0.03 12.1 0.47 12.1 1.09 12.1 1.09 12.1 4.11 12.1 4.11 12.1 4.11 2.99 4.11 2.99 4.11 2.32 4.11 1.74 4.35 1.28 4.83 0.82 5.29 0.58 5.87 0.58 6.52 0.58 6.52 0.58 30.61 0.58 30.61 0.58 31.27 0.81 31.85 1.28 32.33 1.73 32.79 2.32 33.02 2.99 33.02 2.99 33.02 35 33.02 35 33.02 35.68 33.02 36.27 32.79 36.72 32.33 37.19 31.85 37.42 31.27 37.42 30.61 37.42 30.61 37.42 6.52 37.42 6.52 37.42 5.87 37.18 5.29 36.72 4.83ZM 14.32 2.19C 14.32 2.19 23.68 2.19 23.68 2.19 23.68 2.19 23.68 4.11 23.68 4.11 23.68 4.11 14.32 4.11 14.32 4.11 14.32 4.11 14.32 2.19 14.32 2.19ZM 35.2 30.61C 35.2 30.75 35.14 30.81 35 30.81 35 30.81 2.99 30.81 2.99 30.81 2.89 30.81 2.78 30.69 2.78 30.61 2.78 30.61 2.78 14.37 2.78 14.37 2.78 14.37 16.15 14.37 16.15 14.37 16.15 14.37 16.15 14.91 16.15 14.91 16.15 15.53 16.63 16.01 17.25 16.01 17.25 16.01 20.73 16.01 20.73 16.01 21.35 16.01 21.85 15.53 21.85 14.91 21.85 14.91 21.85 14.37 21.85 14.37 21.85 14.37 35.2 14.37 35.2 14.37 35.2 14.37 35.2 30.61 35.2 30.61ZM 35.2 12.18C 35.2 12.18 2.78 12.18 2.78 12.18 2.78 12.18 2.78 6.52 2.78 6.52 2.78 6.39 2.85 6.32 2.99 6.32 2.99 6.32 35 6.32 35 6.32 35.14 6.32 35.2 6.39 35.2 6.52 35.2 6.52 35.2 12.18 35.2 12.18Z" fill="rgb(145,145,145)"/></svg>