<?xml version="1.0" encoding="utf-8"?>
<svg xmlns="http://www.w3.org/2000/svg"
	xmlns:xlink="http://www.w3.org/1999/xlink"
	width="37px" height="36px" viewBox="0 0 37 36">
<path fillRule="evenodd" d="M 36.95 13.33C 36.84 13.65 36.54 13.87 36.2 13.87 36.2 13.87 0.77 13.87 0.77 13.87 0.43 13.87 0.13 13.65 0.02 13.33-0.08 13 0.04 12.65 0.32 12.46 0.32 12.46 18.15 0.14 18.15 0.14 18.42-0.05 18.79-0.05 19.06 0.14 19.06 0.14 36.65 12.46 36.65 12.46 36.93 12.66 37.05 13.01 36.95 13.33ZM 18.6 1.72C 18.6 1.72 3.27 12.32 3.27 12.32 3.27 12.32 33.73 12.32 33.73 12.32 33.73 12.32 18.6 1.72 18.6 1.72ZM 10.71 31.34C 10.71 31.34 10.71 17.75 10.71 17.75 10.71 17.32 11.07 16.97 11.5 16.97 11.94 16.97 12.29 17.32 12.29 17.75 12.29 17.75 12.29 31.34 12.29 31.34 12.29 31.77 11.94 32.12 11.5 32.12 11.07 32.12 10.71 31.77 10.71 31.34ZM 15.4 31.34C 15.4 31.34 15.4 17.75 15.4 17.75 15.4 17.32 15.75 16.97 16.19 16.97 16.62 16.97 16.98 17.32 16.98 17.75 16.98 17.75 16.98 31.34 16.98 31.34 16.98 31.77 16.62 32.12 16.19 32.12 15.75 32.12 15.4 31.77 15.4 31.34ZM 19.99 31.34C 19.99 31.34 19.99 17.75 19.99 17.75 19.99 17.32 20.35 16.97 20.78 16.97 21.22 16.97 21.57 17.32 21.57 17.75 21.57 17.75 21.57 31.34 21.57 31.34 21.57 31.77 21.22 32.12 20.78 32.12 20.35 32.12 19.99 31.77 19.99 31.34ZM 24.68 31.34C 24.68 31.34 24.68 17.75 24.68 17.75 24.68 17.32 25.03 16.97 25.47 16.97 25.9 16.97 26.26 17.32 26.26 17.75 26.26 17.75 26.26 31.34 26.26 31.34 26.26 31.77 25.9 32.12 25.47 32.12 25.03 32.12 24.68 31.77 24.68 31.34ZM 2.63 30.57C 2.63 30.57 6.12 30.57 6.12 30.57 6.12 30.57 6.12 16.19 6.12 16.19 6.12 15.76 6.47 15.41 6.91 15.41 7.34 15.41 7.7 15.76 7.7 16.19 7.7 16.19 7.7 31.34 7.7 31.34 7.7 31.77 7.34 32.12 6.91 32.12 6.91 32.12 3.41 32.12 3.41 32.12 3.41 32.12 3.41 34.45 3.41 34.45 3.41 34.45 33.56 34.45 33.56 34.45 33.56 34.45 33.56 32.12 33.56 32.12 33.56 32.12 30.06 32.12 30.06 32.12 29.63 32.12 29.28 31.77 29.28 31.34 29.28 31.34 29.28 16.19 29.28 16.19 29.28 15.76 29.63 15.41 30.06 15.41 30.5 15.41 30.85 15.76 30.85 16.19 30.85 16.19 30.85 30.57 30.85 30.57 30.85 30.57 34.35 30.57 34.35 30.57 34.78 30.57 35.13 30.92 35.13 31.34 35.13 31.34 35.13 35.22 35.13 35.22 35.13 35.65 34.78 36 34.35 36 34.35 36 2.63 36 2.63 36 2.19 36 1.84 35.65 1.84 35.22 1.84 35.22 1.84 31.34 1.84 31.34 1.84 30.92 2.19 30.57 2.63 30.57Z" fill="rgb(145,145,145)"/></svg>