<?xml version="1.0" encoding="utf-8"?>
<svg xmlns="http://www.w3.org/2000/svg"
	xmlns:xlink="http://www.w3.org/1999/xlink"
	width="23px" height="36px" viewBox="0 0 23 36">
<path fillRule="evenodd" d="M 19.47 19.33C 17.44 21.24 14.88 22.27 12.27 22.44 12.27 22.44 12.14 28.82 12.14 28.82 12.14 28.82 16.53 28.9 16.53 28.9 17.08 28.91 17.51 29.35 17.5 29.89 17.49 30.16 17.38 30.4 17.2 30.57 17.01 30.74 16.76 30.84 16.49 30.84 16.49 30.84 12.11 30.76 12.11 30.76 12.11 30.76 12.02 35.04 12.02 35.04 12.02 35.31 11.9 35.55 11.72 35.72 11.54 35.9 11.29 36 11.02 35.99 10.47 35.98 10.03 35.54 10.04 35.01 10.04 35.01 10.13 30.72 10.13 30.72 10.13 30.72 5.74 30.64 5.74 30.64 5.2 30.63 4.76 30.19 4.77 29.66 4.78 29.12 5.23 28.7 5.78 28.71 5.78 28.71 10.17 28.79 10.17 28.79 10.17 28.79 10.29 22.4 10.29 22.4 7.69 22.14 5.17 21.02 3.22 19.04-1.17 14.58-1.03 7.45 3.53 3.15 8.1-1.14 15.38-1.01 19.78 3.45 24.17 7.91 24.03 15.03 19.47 19.33ZM 18.35 4.79C 14.72 1.1 8.68 0.99 4.91 4.55 1.13 8.1 1.01 14 4.65 17.69 8.28 21.38 14.32 21.49 18.09 17.94 21.87 14.38 21.99 8.48 18.35 4.79Z" fill="rgb(19,143,117)"/></svg>