<?xml version="1.0" encoding="utf-8"?>
<svg xmlns="http://www.w3.org/2000/svg"
	xmlns:xlink="http://www.w3.org/1999/xlink"
	width="31px" height="38px" viewBox="0 0 31 38">
<path fillRule="evenodd" d="M 30.89 36.32C 30.89 36.89 30.42 37.36 29.85 37.36 29.85 37.36 26.59 37.36 26.59 37.36 26.58 37.36 26.57 37.36 26.56 37.36 26.43 37.36 26.31 37.34 26.19 37.29 26.15 37.28 26.1 37.26 26.06 37.23 25.87 37.13 25.71 36.97 25.61 36.76 25.59 36.7 25.57 36.64 25.55 36.58 25.55 36.58 22.31 24.89 22.31 24.89 22.31 24.89 12.58 24.87 12.58 24.87 12.48 24.87 12.38 24.85 12.28 24.83 12.13 24.78 12 24.71 11.88 24.61 11.77 24.51 11.67 24.38 11.61 24.23 11.57 24.14 11.55 24.04 11.54 23.94 11.54 23.94 10.11 12.16 10.11 12.16 10.11 12.13 10.11 12.1 10.1 12.06 10.08 11.52 10.47 11.05 11.02 10.98 11.07 10.98 11.13 10.97 11.18 10.98 11.18 10.98 11.35 10.98 11.35 10.98 11.38 10.98 11.41 10.98 11.43 10.98 13.99 10.98 14.3 11.03 16.02 12.53 16.02 12.53 16.2 12.69 16.2 12.69 16.21 12.7 16.22 12.71 16.23 12.71 16.23 12.71 23.17 19.14 23.17 19.14 23.17 19.14 24.8 19.14 24.8 19.14 25.37 19.14 25.84 19.61 25.84 20.18 25.84 20.75 25.37 21.22 24.8 21.22 24.8 21.22 22.77 21.22 22.77 21.22 22.75 21.22 22.73 21.22 22.7 21.22 22.6 21.21 22.5 21.19 22.41 21.16 22.41 21.16 22.41 21.16 22.41 21.16 22.41 21.16 22.41 21.16 22.41 21.16 22.29 21.11 22.19 21.05 22.09 20.97 22.09 20.97 22.09 20.97 22.09 20.97 22.09 20.97 22.09 20.97 22.09 20.97 22.09 20.97 22.09 20.97 22.09 20.97 22.09 20.97 22.09 20.97 22.09 20.97 22.08 20.96 22.07 20.95 22.06 20.94 22.06 20.94 14.83 14.25 14.83 14.25 14.83 14.25 14.65 14.1 14.65 14.1 13.97 13.5 13.68 13.26 13.39 13.17 13.17 13.09 12.83 13.07 12.32 13.06 12.32 13.06 13.49 22.79 13.49 22.79 13.49 22.79 23.1 22.82 23.1 22.82 23.57 22.82 23.98 23.13 24.1 23.58 24.1 23.58 27.35 35.28 27.35 35.28 27.35 35.28 29.85 35.28 29.85 35.28 30.42 35.28 30.89 35.74 30.89 36.32ZM 20.81 30.24C 20.31 29.96 19.67 30.13 19.39 30.63 17.75 33.5 14.69 35.28 11.39 35.28 6.32 35.28 2.19 31.15 2.19 26.08 2.19 22.31 4.55 18.86 8.07 17.5 8.61 17.3 8.88 16.69 8.67 16.16 8.46 15.62 7.86 15.35 7.32 15.56 5.22 16.37 3.43 17.78 2.13 19.64 0.81 21.53 0.11 23.76 0.11 26.08 0.11 32.3 5.17 37.36 11.39 37.36 15.43 37.36 19.19 35.17 21.19 31.66 21.48 31.16 21.3 30.52 20.81 30.24ZM 6.8 4.98C 6.8 2.59 8.75 0.64 11.14 0.64 13.54 0.64 15.48 2.59 15.48 4.98 15.48 7.37 13.54 9.31 11.14 9.31 8.75 9.31 6.8 7.37 6.8 4.98ZM 8.89 4.98C 8.89 6.22 9.9 7.23 11.14 7.23 12.39 7.23 13.4 6.22 13.4 4.98 13.4 3.73 12.39 2.72 11.14 2.72 9.9 2.72 8.89 3.73 8.89 4.98Z" fill="rgb(145,145,145)"/></svg>