<?xml version="1.0" encoding="utf-8"?>
<svg xmlns="http://www.w3.org/2000/svg"
	xmlns:xlink="http://www.w3.org/1999/xlink"
	width="33px" height="36px" viewBox="0 0 33 36">
<path fillRule="evenodd" d="M 32.63 35.1C 32.26 35.65 31.68 35.96 31 36 31 36 2 36 2 36 1.36 36 0.78 35.72 0.41 35.21 0.03 34.69-0.1 34.03 0.07 33.38 0.07 33.38 1.63 28.11 1.63 28.11 2.51 24.94 4.99 22.49 8.11 21.66 8.11 21.66 8.51 21.53 8.51 21.53 8.55 21.49 8.61 21.46 8.68 21.46 9.29 21.29 9.94 21.49 10.34 21.97 11.6 23.46 13.7 25.21 16.48 25.21 18.69 25.21 20.83 24.08 22.62 21.87 22.62 21.87 22.66 21.84 22.66 21.84 23.1 21.39 23.71 21.22 24.29 21.35 24.35 21.39 24.42 21.39 24.46 21.42 24.46 21.42 24.9 21.56 24.9 21.56 27.98 22.39 30.46 24.83 31.34 28 31.34 28 32.9 33.24 32.9 33.24 33.11 33.86 33 34.52 32.63 35.1ZM 30.09 28.38C 29.34 25.7 27.2 23.59 24.56 22.9 24.56 22.9 24.12 22.77 24.12 22.77 24.05 22.77 24.01 22.73 23.98 22.73 23.81 22.73 23.71 22.8 23.64 22.87 21.57 25.28 19.06 26.59 16.48 26.59 13.94 26.59 11.4 25.28 9.33 22.87 9.26 22.8 9.16 22.73 9.02 22.77 8.99 22.77 8.95 22.8 8.89 22.8 8.89 22.8 8.48 22.94 8.48 22.94 5.77 23.63 3.66 25.73 2.92 28.42 2.92 28.42 1.36 33.66 1.36 33.66 1.32 33.86 1.36 34.1 1.49 34.28 1.59 34.45 1.8 34.55 2 34.55 2 34.55 30.97 34.55 30.97 34.55 31.17 34.55 31.38 34.41 31.51 34.24 31.65 34.07 31.68 33.86 31.65 33.62 31.65 33.62 30.09 28.38 30.09 28.38ZM 29.58 18.49C 29.58 18.49 29.54 18.49 29.54 18.49 29.54 18.49 28.59 18.74 28.59 18.74 26.15 19.32 23.54 19.77 20.86 20.01 19.6 21.29 18.08 22.04 16.48 22.04 14.89 22.04 13.36 21.32 12.11 20.04 9.5 19.84 6.82 19.39 4.17 18.74 4.17 18.74 3.22 18.49 3.22 18.49 2.81 18.43 2.48 18.12 2.31 17.74 2.14 17.32 2.14 16.84 2.37 16.46 2.37 16.46 4.92 12.05 4.92 12.05 5.77 10.64 6.44 9.02 7.02 7.23 7.02 7.23 7.19 6.64 7.19 6.64 8.11 3.64 10.45 1.33 13.43 0.47 13.43 0.47 13.8 0.34 13.8 0.34 15.47-0.15 17.23-0.15 18.86 0.34 18.86 0.34 19.3 0.47 19.3 0.47 22.22 1.33 24.56 3.61 25.51 6.61 25.51 6.61 25.68 7.23 25.68 7.23 26.15 8.81 26.86 10.43 27.78 12.05 27.78 12.05 30.36 16.46 30.36 16.46 30.56 16.84 30.6 17.29 30.46 17.67 30.32 18.05 29.98 18.36 29.58 18.49ZM 16.48 20.7C 19.91 20.7 22.93 16.19 22.93 11.02 22.93 10.88 22.93 10.74 22.93 10.6 21.23 10.91 19.77 10.43 18.72 9.19 17.6 10.78 15.13 12.88 10.07 11.88 10.38 16.67 13.23 20.7 16.48 20.7ZM 26.59 12.67C 25.64 10.95 24.86 9.23 24.35 7.57 24.35 7.57 24.18 6.99 24.18 6.99 23.37 4.47 21.4 2.51 18.89 1.78 18.89 1.78 18.45 1.65 18.45 1.65 17.09 1.23 15.6 1.23 14.21 1.65 14.21 1.65 13.84 1.78 13.84 1.78 11.29 2.54 9.29 4.47 8.51 7.02 8.51 7.02 8.34 7.61 8.34 7.61 7.73 9.5 6.99 11.22 6.1 12.74 6.1 12.74 3.56 17.18 3.56 17.18 3.56 17.18 4.51 17.43 4.51 17.43 6.61 17.94 8.78 18.32 10.85 18.53 9.5 16.53 8.65 13.84 8.65 10.98 8.65 10.78 8.75 10.57 8.92 10.43 9.09 10.29 9.29 10.26 9.5 10.29 15.23 11.74 17.33 8.92 17.98 7.64 18.08 7.36 18.35 7.23 18.62 7.26 18.89 7.23 19.13 7.33 19.27 7.57 20.18 9.09 21.44 9.54 23.27 8.98 23.44 8.92 23.64 8.95 23.81 9.05 23.98 9.16 24.08 9.33 24.12 9.54 24.18 9.98 24.22 10.43 24.22 10.91 24.22 13.77 23.37 16.43 22.05 18.43 24.18 18.18 26.25 17.81 28.22 17.32 28.22 17.32 29.14 17.08 29.14 17.08 29.17 17.08 29.17 17.08 29.17 17.08 29.17 17.08 26.59 12.67 26.59 12.67Z" fill="rgb(145,145,145)"/></svg>