<?xml version="1.0" encoding="utf-8"?>
<svg xmlns="http://www.w3.org/2000/svg"
	xmlns:xlink="http://www.w3.org/1999/xlink"
	width="30px" height="36px" viewBox="0 0 30 36">
<path fillRule="evenodd" d="M 30 6.02C 29.99 5.54 29.65 5.13 29.17 5.06 26.94 4.76 24.73 4.23 22.57 3.44 20.43 2.66 18.05 1.57 15.48 0.13 15.16-0.05 14.85-0.05 14.53 0.13 11.98 1.57 9.62 2.66 7.45 3.44 5.29 4.23 3.09 4.76 0.88 5.06 0.4 5.13 0.06 5.54 0.01 6.02-0.2 15.06 1.79 22.46 5.97 28.21 8.24 31.34 11.09 33.88 14.53 35.82 14.79 36.02 15.21 36 15.52 35.82 18.93 33.85 21.78 31.33 24.05 28.21 28.23 22.46 30.2 15.06 30 6.02ZM 22.45 27.1C 20.48 29.81 18 32.07 15.01 33.88 12.01 32.07 9.52 29.82 7.56 27.1 3.76 21.83 1.91 15.09 1.98 6.88 4.07 6.55 6.14 5.98 8.22 5.22 10.29 4.47 12.56 3.43 15.01 2.1 17.45 3.43 19.7 4.47 21.78 5.22 23.85 5.98 25.94 6.55 28.03 6.88 28.1 15.15 26.24 21.89 22.45 27.1Z" fill="rgb(145,145,145)"/></svg>