<?xml version="1.0" encoding="utf-8"?>
<!-- Generator: Adobe Illustrator 22.1.0, SVG Export Plug-In . SVG Version: 6.00 Build 0)  -->
<svg version="1.1" id="Layer_1" xmlns="http://www.w3.org/2000/svg" xmlns:xlink="http://www.w3.org/1999/xlink" x="0px" y="0px"
	 viewBox="0 0 231 223" style="enable-background:new 0 0 231 223;" xml:space="preserve">
<style type="text/css">
	.st0{fill:#FFFFFF;}
	.st1{fill:#F8F8F8;}
	.st2{fill:#A8B0BB;stroke:#FFFFFF;stroke-miterlimit:10;}
	.st3{fill:#A8B0BB;}
	.st4{fill:#FFFFFF;stroke:#A8B0BB;stroke-width:5;stroke-miterlimit:10;}
	.st5{fill:none;}
	.st6{fill:#16A085;stroke:#FFFFFF;stroke-width:2;stroke-miterlimit:10;}
	.st7{fill:#42BEFC;}
	.st8{fill:#F9914B;}
	.st9{fill:#A0B4F9;}
	.st10{opacity:0.7;fill:#E5E8EB;enable-background:new    ;}
</style>
<polygon class="st0" points="8.8,80 8.8,178.2 8.8,182.3 169,182.3 "/>
<polygon class="st1" points="10.3,74.1 94.8,128.9 174.9,71.1 101.1,10.7 93.3,5.8 "/>
<polygon class="st1" points="97.8,130.4 177.9,75.5 179.4,77 180.8,177.9 177.9,182.3 "/>
<path class="st2" d="M185.3,78.5c0-3-0.1-4.1-11.4-14.1L102.7,5.1L102.6,5c-2.7-2-9.3-4.6-15.5,0.1L2.9,72.7v103.8
	c0,4.8,3.2,11.9,11.9,11.9h158.5c0.3,0,0.8,0.1,1.4,0.1c1.7,0,4.6-0.4,7.1-2.2c2.7-2,4.4-5.1,5-9.3v-0.2L185.3,78.5z M90.7,9.7
	c3.9-2.9,7.7-0.4,8.3,0l71,59.2c1.3,1.2,2.5,2.2,3.5,3.1l-80.8,54.3L10.9,73.8L90.7,9.7z M8.8,176.4V80L169,182.3H14.7
	C9.3,182.3,8.8,177.8,8.8,176.4z M178.3,181.3l-79.8-51.2l79.4-53.9c0.7,0.7,1.2,1.1,1.5,1.5l1.5,98.6
	C180.5,178.6,179.6,180.3,178.3,181.3z"/>
<path class="st0" d="M30.7,87.2l61.9,40.3L156.7,84V33c0,0-0.2-7-8.3-5.5L33.7,27.3c0,0-4.2,2.2-3,6.4L30.7,87.2L30.7,87.2z"/>
<path class="st3" d="M26.1,84.3l4.6,2.9L31,32.9c0-3.1,2.1-5.4,5-5.4h115.7c2.8,0,5,2.4,5,5.5v51l5-3.3V33
	c-0.1-5.9-4.5-10.4-10-10.4H35.9c-5.6,0-10,4.6-10,10.4"/>
<circle class="st4" cx="182.7" cy="174.7" r="44"/>
<line class="st5" x1="161.7" y1="80.7" x2="156.7" y2="84"/>
<polygon class="st6" points="203.6,160.7 204.1,160.4 199.1,155.5 182.8,171.9 166.9,155.9 166.4,155.5 161.6,160.4 177.9,176.7 
	161.9,192.6 161.6,193 166.4,198 182.8,181.6 198.8,197.5 199.1,198 204.1,193 187.6,176.7 "/>
<circle class="st7" cx="61.6" cy="51.2" r="3.3"/>
<circle class="st8" cx="61.6" cy="66.5" r="3.3"/>
<circle class="st9" cx="61.6" cy="82.7" r="3.3"/>
<rect x="70.2" y="48.8" class="st10" width="61.1" height="5.1"/>
<rect x="70.2" y="64.4" class="st10" width="61.1" height="4.5"/>
<rect x="70.2" y="80.8" class="st10" width="49.5" height="4.5"/>
</svg>
