<?xml version="1.0" encoding="utf-8"?>
<!-- Generator: Adobe Illustrator 22.1.0, SVG Export Plug-In . SVG Version: 6.00 Build 0)  -->
<svg version="1.1" id="Layer_1" xmlns="http://www.w3.org/2000/svg" xmlns:xlink="http://www.w3.org/1999/xlink" x="0px" y="0px"
	 viewBox="0 0 250 250" style="enable-background:new 0 0 250 250;" xml:space="preserve">
<style type="text/css">
	.st0{opacity:0.4;fill:#E5E8EB;enable-background:new    ;}
	.st1{fill:none;stroke:#A8B0BB;stroke-width:5;stroke-miterlimit:10;}
	.st2{fill:#A8B0BB;}
	.st3{fill:#FFFFFF;}
	.st4{fill:#F7F7F7;}
	.st5{fill:#E5E8EB;}
	.st6{fill:none;}
	.st7{fill:#FFFFFF;stroke:#A8B0BB;stroke-width:5;stroke-miterlimit:10;}
	.st8{fill:#FFFFFF;stroke:#A8B0BB;stroke-width:4;stroke-miterlimit:10;}
	.st9{fill:#16A085;}
	.st10{fill:#A8B0BB;stroke:#FFFFFF;stroke-miterlimit:10;}
</style>
<g>
	<path class="st0" d="M41.1,181.1h166.1c0,0-29.9,43.9-79,44.2c-49,0.2-1.1,0-1.1,0S71.4,226.4,41.1,181.1z"/>
	<circle class="st1" cx="125" cy="125.1" r="98.7"/>
	<rect x="9.8" y="183.7" class="st2" width="12.6" height="5"/>
	<rect x="227.2" y="183.7" class="st2" width="12.6" height="5"/>
	<polygon class="st3" points="161,24.4 140.8,135.8 68.6,135.8 44.6,131.9 44.4,29.4 50.2,24.4 	"/>
	<polygon class="st4" points="161,24.4 110.7,135.8 183.1,135.8 206.9,131.9 207.2,29.4 201.3,24.4 	"/>
	<polygon class="st5" points="203.5,37.7 45.2,37.7 46.1,24.4 202.2,24.7 	"/>
	<path class="st1" d="M197,24.4H51.5c-4.4,0-7.8,3.4-7.8,7.8v102.1h161.1v-102C204.7,27.7,201.3,24.4,197,24.4z"/>
	<line class="st6" x1="71.8" y1="185.6" x2="179.8" y2="185.6"/>
	<path class="st2" d="M179,183.7H71 M67.8,183.7H25.2v5h42.9h3.3h107.2h3.3h42.9v-5h-42.6"/>
	<path class="st7" d="M155.6,175.9H87c-4.4,0-7.8,3.4-7.8,7.8v2.6h84.5v-2.6C163.4,179.2,160.1,175.9,155.6,175.9z"/>
	<polygon class="st7" points="147.3,175.1 95.6,175.1 105.8,160.5 137,160.5 	"/>
	<path class="st7" d="M43.7,134.2v18.4c0,4.4,3.4,7.8,7.8,7.8H197c4.4,0,7.8-3.4,7.8-7.8v-18.4H43.7z"/>
	<g>
		<circle class="st2" cx="113" cy="147.5" r="2.3"/>
		<circle class="st2" cx="121" cy="147.5" r="2.3"/>
		<circle class="st2" cx="129" cy="147.5" r="2.3"/>
	</g>
	<circle class="st3" cx="57.4" cy="32" r="2.3"/>
	<circle class="st3" cx="65.5" cy="32" r="2.3"/>
	<circle class="st3" cx="73.6" cy="32" r="2.3"/>
	<ellipse class="st8" cx="193.7" cy="145.9" rx="19.4" ry="19.4"/>
	<polygon class="st2" points="200.9,140.6 201,140.4 199.3,138.7 193.7,144.4 188.2,138.9 188.1,138.7 186.4,140.4 192,146 
		186.5,151.5 186.4,151.7 188.1,153.3 193.7,147.8 199.2,153.2 199.3,153.3 201,151.7 195.4,146 	"/>
	<path class="st3" d="M167.9,118.2H84.8c-5.3,0-9.7-4.4-9.7-9.7V63.8c0-5.3,4.4-9.7,9.7-9.7h83.1c5.3,0,9.7,4.4,9.7,9.7v44.7
		C177.6,113.8,173.2,118.2,167.9,118.2z"/>
	<g>
		<g>
			<path class="st9" d="M97.3,73.6h-1.7c-0.9,0-1.7-0.7-1.7-1.7c0-0.9,0.7-1.7,1.7-1.7h1.7c0.9,0,1.7,0.7,1.7,1.7
				C99,72.8,98.3,73.6,97.3,73.6z"/>
		</g>
		<g>
			<path class="st9" d="M109,73.6h-1.6c-0.9,0-1.7-0.7-1.7-1.7c0-0.9,0.7-1.7,1.7-1.7h1.7c0.9,0,1.7,0.7,1.7,1.7
				C110.7,72.8,109.9,73.6,109,73.6z"/>
		</g>
		<g>
			<path class="st9" d="M120.6,73.6h-1.7c-0.9,0-1.7-0.7-1.7-1.7c0-0.9,0.7-1.7,1.7-1.7h1.7c0.9,0,1.7,0.7,1.7,1.7
				C122.3,72.8,121.6,73.6,120.6,73.6z"/>
		</g>
		<g>
			<path class="st9" d="M130.6,73.6h-1.7c-0.9,0-1.7-0.7-1.7-1.7c0-0.9,0.7-1.7,1.7-1.7h1.7c0.9,0,1.7,0.7,1.7,1.7
				C132.3,72.8,131.5,73.6,130.6,73.6z"/>
		</g>
		<g>
			<path class="st9" d="M142.3,73.6h-1.7c-0.9,0-1.7-0.7-1.7-1.7c0-0.9,0.7-1.7,1.7-1.7h1.7c0.9,0,1.7,0.7,1.7,1.7
				C144,72.8,143.2,73.6,142.3,73.6z"/>
		</g>
		<g>
			<path class="st9" d="M153.9,73.6h-1.7c-0.9,0-1.7-0.7-1.7-1.7c0-0.9,0.7-1.7,1.7-1.7h1.7c0.9,0,1.7,0.7,1.7,1.7
				C155.6,72.8,154.8,73.6,153.9,73.6z"/>
		</g>
	</g>
	<g>
		<g>
			<path class="st9" d="M97.3,83.6h-1.7c-0.9,0-1.7-0.7-1.7-1.7c0-0.9,0.7-1.7,1.7-1.7h1.7c0.9,0,1.7,0.7,1.7,1.7
				C99,82.8,98.3,83.6,97.3,83.6z"/>
		</g>
		<g>
			<path class="st9" d="M109,83.6h-1.6c-0.9,0-1.7-0.7-1.7-1.7c0-0.9,0.7-1.7,1.7-1.7h1.7c0.9,0,1.7,0.7,1.7,1.7
				C110.7,82.8,109.9,83.6,109,83.6z"/>
		</g>
		<g>
			<path class="st9" d="M120.6,83.6h-1.7c-0.9,0-1.7-0.7-1.7-1.7c0-0.9,0.7-1.7,1.7-1.7h1.7c0.9,0,1.7,0.7,1.7,1.7
				C122.3,82.8,121.6,83.6,120.6,83.6z"/>
		</g>
		<g>
			<path class="st9" d="M130.6,83.6h-1.7c-0.9,0-1.7-0.7-1.7-1.7c0-0.9,0.7-1.7,1.7-1.7h1.7c0.9,0,1.7,0.7,1.7,1.7
				C132.3,82.8,131.5,83.6,130.6,83.6z"/>
		</g>
		<g>
			<path class="st9" d="M142.3,83.6h-1.7c-0.9,0-1.7-0.7-1.7-1.7c0-0.9,0.7-1.7,1.7-1.7h1.7c0.9,0,1.7,0.7,1.7,1.7
				C144,82.8,143.2,83.6,142.3,83.6z"/>
		</g>
		<g>
			<path class="st9" d="M153.9,83.6h-1.7c-0.9,0-1.7-0.7-1.7-1.7c0-0.9,0.7-1.7,1.7-1.7h1.7c0.9,0,1.7,0.7,1.7,1.7
				C155.6,82.8,154.8,83.6,153.9,83.6z"/>
		</g>
	</g>
	<g>
		<path class="st9" d="M97.3,103.6h-1.7c-0.9,0-1.7-0.7-1.7-1.7s0.7-1.7,1.7-1.7h1.7c0.9,0,1.7,0.7,1.7,1.7S98.3,103.6,97.3,103.6z"
			/>
	</g>
	<g>
		<path class="st9" d="M144,103.6h-36.6c-0.9,0-1.7-0.7-1.7-1.7s0.7-1.7,1.7-1.7H144c0.9,0,1.7,0.7,1.7,1.7S144.9,103.6,144,103.6z"
			/>
	</g>
	<g>
		<path class="st9" d="M153.9,103.6h-1.7c-0.9,0-1.7-0.7-1.7-1.7s0.7-1.7,1.7-1.7h1.7c0.9,0,1.7,0.7,1.7,1.7
			S154.8,103.6,153.9,103.6z"/>
	</g>
	<g>
		<g>
			<path class="st9" d="M97.3,93.6h-1.7c-0.9,0-1.7-0.7-1.7-1.7s0.7-1.7,1.7-1.7h1.7c0.9,0,1.7,0.7,1.7,1.7S98.3,93.6,97.3,93.6z"/>
		</g>
		<g>
			<path class="st9" d="M109,93.6h-1.6c-0.9,0-1.7-0.7-1.7-1.7s0.7-1.7,1.7-1.7h1.7c0.9,0,1.7,0.7,1.7,1.7S109.9,93.6,109,93.6z"/>
		</g>
		<g>
			<path class="st9" d="M120.6,93.6h-1.7c-0.9,0-1.7-0.7-1.7-1.7s0.7-1.7,1.7-1.7h1.7c0.9,0,1.7,0.7,1.7,1.7S121.6,93.6,120.6,93.6z
				"/>
		</g>
		<g>
			<path class="st9" d="M130.6,93.6h-1.7c-0.9,0-1.7-0.7-1.7-1.7s0.7-1.7,1.7-1.7h1.7c0.9,0,1.7,0.7,1.7,1.7S131.5,93.6,130.6,93.6z
				"/>
		</g>
		<g>
			<path class="st9" d="M142.3,93.6h-1.7c-0.9,0-1.7-0.7-1.7-1.7s0.7-1.7,1.7-1.7h1.7c0.9,0,1.7,0.7,1.7,1.7S143.2,93.6,142.3,93.6z
				"/>
		</g>
		<g>
			<path class="st9" d="M153.9,93.6h-1.7c-0.9,0-1.7-0.7-1.7-1.7s0.7-1.7,1.7-1.7h1.7c0.9,0,1.7,0.7,1.7,1.7S154.8,93.6,153.9,93.6z
				"/>
		</g>
	</g>
	<path class="st10" d="M167,52.5H84.7c-5.9,0-10.8,4.9-10.8,10.8V108c0,6.2,5.1,11.3,11.3,11.3H167c6.2,0,11.3-5.1,11.3-11.3V63.7
		C178.2,57.6,173.2,52.5,167,52.5z M174.7,108.1c0,4.3-3.6,7.8-7.8,7.8H85.4c-4.3,0-7.8-3.6-7.8-7.8V63.7c0-4.3,3.6-7.8,7.8-7.8
		h81.4c4.3,0,7.8,3.6,7.8,7.8V108.1z"/>
</g>
</svg>
