<?xml version="1.0" encoding="utf-8"?>
<!-- Generator: Adobe Illustrator 22.1.0, SVG Export Plug-In . SVG Version: 6.00 Build 0)  -->
<svg version="1.1" id="Layer_1" xmlns="http://www.w3.org/2000/svg" xmlns:xlink="http://www.w3.org/1999/xlink" x="0px" y="0px"
	 viewBox="0 0 245 211" style="enable-background:new 0 0 245 211;" xml:space="preserve">
<style type="text/css">
	.st0{fill:none;}
	.st1{fill:#E7F5F3;stroke:#FFFFFF;stroke-width:4;stroke-miterlimit:10;}
	.st2{fill:#FFFFFF;}
	.st3{fill:#FFFFFF;stroke:#A8B0BB;stroke-width:5;stroke-miterlimit:10;}
	.st4{fill:#42BEFC;}
	.st5{fill:#F9914B;}
	.st6{fill:#A0B4F9;}
	.st7{fill:#FC7370;}
	.st8{fill:#E5E8EB;}
	.st9{fill:#A8B0BB;}
	.st10{fill:#16A085;stroke:#FFFFFF;stroke-width:2;stroke-miterlimit:10;}
	.st11{fill:#A8B0BB;stroke:#FFFFFF;stroke-width:0.75;stroke-miterlimit:10;}
</style>
<line class="st0" x1="40.1" y1="204.8" x2="173.6" y2="204.8"/>
<path class="st1" d="M194.8,7.5H15c-5.5,0-9.6,4.2-9.6,9.6v126.2h199.1V17.2C204.4,11.7,200.2,7.5,194.8,7.5z"/>
<rect x="18.2" y="20.4" class="st2" width="173.4" height="110.1"/>
<path class="st3" d="M194.8,5.5H15c-5.5,0-9.6,4.2-9.6,9.6v126.2h199.1V15.2C204.4,9.7,200.2,5.5,194.8,5.5z"/>
<path class="st3" d="M143.7,192.8H58.9c-5.5,0-9.6,4.2-9.6,9.6v3.2h104.4v-3.2C153.3,196.9,149.2,192.8,143.7,192.8z"/>
<polygon class="st3" points="133.4,191.8 69.5,191.8 82.1,173.8 120.6,173.8 "/>
<path class="st3" d="M5.3,141.3v22.8c0,5.5,4.2,9.6,9.6,9.6h179.9c5.5,0,9.6-4.2,9.6-9.6v-22.8H5.3z"/>
<circle class="st4" cx="38.8" cy="41.5" r="3.3"/>
<circle class="st5" cx="38.8" cy="56.2" r="3.3"/>
<circle class="st6" cx="38.8" cy="70.9" r="3.3"/>
<circle class="st7" cx="38.8" cy="85.6" r="3.3"/>
<rect x="49.7" y="39.1" class="st8" width="69.1" height="5.1"/>
<rect x="49.7" y="54.2" class="st8" width="60.4" height="4.5"/>
<rect x="49.7" y="68.9" class="st8" width="60.4" height="4.5"/>
<circle class="st6" cx="39.3" cy="100.3" r="3.8"/>
<rect x="49.7" y="98.1" class="st8" width="69.1" height="5.1"/>
<rect x="49.7" y="83.7" class="st8" width="33" height="4.5"/>
<g>
	<circle class="st9" cx="91" cy="157.7" r="2.8"/>
	<circle class="st9" cx="100.9" cy="157.7" r="2.8"/>
	<circle class="st9" cx="110.8" cy="157.7" r="2.8"/>
</g>
<rect x="128.4" y="38.7" class="st8" width="45.7" height="19.6"/>
<rect x="128.4" y="61.7" class="st8" width="45.7" height="19.6"/>
<rect x="128.4" y="84.7" class="st8" width="45.7" height="19.6"/>
<circle class="st3" cx="197.5" cy="153.5" r="42.5"/>
<polygon class="st10" points="218.4,137.4 218.8,137.1 213.9,132.2 197.5,148.6 181.6,132.6 181.2,132.2 176.3,137.1 192.6,153.4 
	176.7,169.3 176.3,169.7 181.2,174.7 197.5,158.3 213.5,174.2 213.9,174.7 218.8,169.7 202.4,153.4 "/>
<path class="st11" d="M67.1,68.3c0,18.1,14.7,32.8,32.8,32.8c7.9,0,15.2-2.8,20.9-7.5l21.9,21.9l4.4-4.4l-21.9-21.9
	c4.7-5.7,7.5-12.9,7.5-20.9c0-18.1-14.7-32.8-32.8-32.8C81.8,35.5,67.1,50.2,67.1,68.3z M73.4,68.3c0-14.6,11.9-26.6,26.6-26.6
	s26.6,11.9,26.6,26.6s-11.9,26.6-26.6,26.6S73.4,82.9,73.4,68.3z"/>
</svg>
