<?xml version="1.0" encoding="utf-8"?>
<!-- Generator: Adobe Illustrator 22.1.0, SVG Export Plug-In . SVG Version: 6.00 Build 0)  -->
<svg version="1.1" id="Layer_1" xmlns="http://www.w3.org/2000/svg" xmlns:xlink="http://www.w3.org/1999/xlink" x="0px" y="0px"
	 viewBox="0 0 250 250" style="enable-background:new 0 0 250 250;" xml:space="preserve">
<style type="text/css">
	.st0{opacity:0.4;fill:#E5E8EB;enable-background:new    ;}
	.st1{fill:none;stroke:#A8B0BB;stroke-width:5;stroke-miterlimit:10;}
	.st2{fill:#A8B0BB;}
	.st3{fill:none;}
	.st4{fill:#E7F5F3;stroke:#FFFFFF;stroke-width:4;stroke-miterlimit:10;}
	.st5{fill:#FFFFFF;}
	.st6{fill:#FFFFFF;stroke:#A8B0BB;stroke-width:5;stroke-miterlimit:10;}
	.st7{fill:#42BEFC;}
	.st8{fill:#F9914B;}
	.st9{fill:#A0B4F9;}
	.st10{fill:#FC7370;}
	.st11{fill:#E5E8EB;}
	.st12{fill:#FFFFFF;stroke:#A8B0BB;stroke-width:4;stroke-miterlimit:10;}
	.st13{fill:#16A085;stroke:#FFFFFF;stroke-width:2;stroke-miterlimit:10;}
</style>
<g>
	<path class="st0" d="M41.3,181.6h166.1c0,0-29.9,43.9-79,44.2c-49,0.2-1.1,0-1.1,0S71.6,226.9,41.3,181.6z"/>
	<circle class="st1" cx="125.2" cy="125.5" r="98.7"/>
	<rect x="10" y="184.1" class="st2" width="12.6" height="5"/>
	<rect x="227.4" y="184.1" class="st2" width="12.6" height="5"/>
	<line class="st3" x1="72" y1="186.1" x2="180" y2="186.1"/>
	<path class="st2" d="M179.2,184.1h-108 M68,184.1H25.4v5h42.9h3.3h107.2h3.3H225v-5h-42.6"/>
	<path class="st4" d="M197.2,26.4H51.7c-4.4,0-7.8,3.4-7.8,7.8v102.1H205v-102C204.9,29.8,201.5,26.4,197.2,26.4z"/>
	<rect x="54.3" y="36.9" class="st5" width="140.3" height="89.1"/>
	<path class="st6" d="M197.2,24.8H51.7c-4.4,0-7.8,3.4-7.8,7.8v102.1H205v-102C204.9,28.2,201.5,24.8,197.2,24.8z"/>
	<path class="st6" d="M155.8,176.3H87.2c-4.4,0-7.8,3.4-7.8,7.8v2.6h84.5v-2.6C163.6,179.7,160.3,176.3,155.8,176.3z"/>
	<polygon class="st6" points="147.5,175.5 95.8,175.5 106,161 137.2,161 	"/>
	<path class="st6" d="M43.9,134.7v18.4c0,4.4,3.4,7.8,7.8,7.8h145.5c4.4,0,7.8-3.4,7.8-7.8v-18.4H43.9z"/>
	<circle class="st7" cx="71.4" cy="53" r="3.1"/>
	<circle class="st8" cx="71.4" cy="65" r="3.1"/>
	<circle class="st9" cx="71.4" cy="77.2" r="3.1"/>
	<circle class="st10" cx="71.4" cy="89.8" r="3.1"/>
	<rect x="79.8" y="51.2" class="st11" width="55.9" height="4.1"/>
	<rect x="79.8" y="63.3" class="st11" width="55.9" height="4.1"/>
	<rect x="79.8" y="75.5" class="st11" width="55.9" height="4.1"/>
	<circle class="st9" cx="71.4" cy="101.5" r="3.1"/>
	<rect x="79.8" y="99.7" class="st11" width="55.9" height="4.1"/>
	<rect x="79.8" y="88.1" class="st11" width="30.6" height="4.1"/>
	<g>
		<circle class="st2" cx="113.2" cy="147.9" r="2.3"/>
		<circle class="st2" cx="121.2" cy="147.9" r="2.3"/>
		<circle class="st2" cx="129.2" cy="147.9" r="2.3"/>
	</g>
	<ellipse class="st12" cx="195.6" cy="146.3" rx="19.4" ry="19.4"/>
	<rect x="143.5" y="51.7" class="st11" width="37" height="15.9"/>
	<rect x="143.5" y="70.3" class="st11" width="37" height="15.9"/>
	<rect x="143.5" y="88.9" class="st11" width="37" height="15.9"/>
	<polygon class="st2" points="202.7,141.1 202.8,140.9 201.1,139.2 195.5,144.9 190.1,139.4 189.9,139.2 188.2,140.9 193.9,146.5 
		188.4,152 188.2,152.2 189.9,153.8 195.5,148.3 201,153.7 201.1,153.8 202.8,152.2 197.2,146.5 	"/>
	<path class="st13" d="M152.2,85.4l8.3,29.4l6.6-10.2l12.5,12.5l4.3-4.3L171,100.3l10.6-6.2L152.2,85.4z"/>
</g>
</svg>
