<?xml version="1.0" encoding="utf-8"?>
<!-- Generator: Adobe Illustrator 22.1.0, SVG Export Plug-In . SVG Version: 6.00 Build 0)  -->
<svg version="1.1" id="Layer_1" xmlns="http://www.w3.org/2000/svg" xmlns:xlink="http://www.w3.org/1999/xlink" x="0px" y="0px"
	 viewBox="0 0 70 64" style="enable-background:new 0 0 70 64;" xml:space="preserve">
<style type="text/css">
	.st0{fill:#E1BB9A;}
	.st1{fill:#F3F3F3;}
	.st2{fill:#D6D6D6;}
	.st3{fill:#EFCBAC;}
	.st4{fill:#06B79A;}
	.st5{fill:#F3D3B1;}
	.st6{fill:#552813;}
	.st7{fill:#DDB699;}
	.st8{fill:#F58461;}
	.st9{fill:#4680C2;}
	.st10{fill:#DD8226;}
	.st11{fill:#B06828;}
	.st12{fill:#8CCEAF;}
	.st13{fill:#F2EB3F;}
	.st14{opacity:0.46;fill:#EAEAEA;}
	.st15{fill:#F2F2F2;}
	.st16{fill:#2A2E3E;}
	.st17{clip-path:url(#SVGID_2_);}
	.st18{opacity:0.31;fill:#F3F3F3;}
	.st19{opacity:0.68;fill:#F3F3F3;}
	.st20{fill:#F9F0E8;}
	.st21{fill:#E8C5A3;}
	.st22{fill:#FCE1CA;}
</style>
<g>
	<g>
		<g>
			<path class="st0" d="M6.2,42.2c0,0,7.3-8.5,7.9-8.9c0.6-0.4,5.9-1.6,5.9-1.6v14.8c0,0-3.9,1-6.5,0.8c0,0-2.7,1.1-3.6,1.8
				L6.2,42.2z"/>
			<g>
				<polygon class="st1" points="23.3,3.8 26.5,2.2 29.7,3.8 32.9,2.2 36.1,3.8 39.4,2.2 42.6,3.8 45.8,2.2 49,3.8 52.3,2.2 
					55.5,3.8 58.7,2.3 58.7,3.8 58.7,21.6 58.7,47.3 20,47.3 20,21.5 20,3.8 20,2.2 				"/>
				<path class="st2" d="M23.2,10.9l32.3,0c0.4,0,0.7-0.3,0.7-0.7l0-2.9c0-0.4-0.3-0.7-0.7-0.7l-32.3,0c-0.4,0-0.7,0.3-0.7,0.7
					l0,2.9C22.5,10.6,22.8,10.9,23.2,10.9z"/>
			</g>
			<g>
				<g>
					<path class="st3" d="M38.5,19.5l0.9,0.5l0.9-0.5c-0.1,0.5,0.4,1.4,0.4,1.4l-1.3,0.5l-1.3-0.5C38.1,20.9,38.5,19.9,38.5,19.5z"
						/>
					<path class="st4" d="M34.8,23.7c0-0.7,0.1-1.9,0.5-2.1c0.3-0.2,0.8-0.3,1.3-0.4l0,0l0,0c0.4-0.1,0.8-0.1,0.8-0.1l0.2-0.1
						l0.3-0.1l1.4,0.4l0,0l0,0l1.4-0.4L41,21l0.2,0.1c0,0,0.4,0,0.8,0.1l0,0l0,0c0.5,0.1,1.1,0.2,1.3,0.4c0.4,0.3,0.5,1.5,0.5,2.1
						H34.8z"/>
					<g>
						<path class="st5" d="M39.3,16.5h1.5c0.4,0,0.6,0.3,0.6,0.7c-0.1,0.5-0.2,1.1-0.3,1.4c-0.2,0.4-1,1.2-1.5,1.5
							c-0.2,0.1-0.3,0.1-0.5,0c-0.5-0.3-1.4-1-1.5-1.5c-0.1-0.3-0.2-0.9-0.3-1.4c-0.1-0.4,0.2-0.7,0.6-0.7H39.3z"/>
						<path class="st6" d="M39.3,16.5c-0.6,0-1.5,0.3-1.8,0.4c-0.3,0.1,0,1.4,0,1.4c0,0-0.1-0.2-0.2-0.3s-0.1-1-0.1-1v-0.5H39.3z"/>
					</g>
					<path class="st7" d="M38.4,19.7c0-0.1,0-0.2,0-0.2l0.9,0.5l0.9-0.5c0,0.1,0,0.2,0,0.2c-0.2,0.2-0.5,0.4-0.7,0.4
						c-0.2,0.1-0.3,0.1-0.5,0C38.9,20.1,38.7,19.9,38.4,19.7z"/>
					<g>
						<path class="st5" d="M39.3,16.5h1.5c0.4,0,0.6,0.3,0.6,0.7c-0.1,0.5-0.2,1.1-0.3,1.4c-0.2,0.4-1,1.2-1.5,1.5
							c-0.2,0.1-0.3,0.1-0.5,0c-0.5-0.3-1.4-1-1.5-1.5c-0.1-0.3-0.2-0.9-0.3-1.4c-0.1-0.4,0.2-0.7,0.6-0.7H39.3z"/>
						<path class="st6" d="M37.1,16.6C37.2,16.6,37.2,16.6,37.1,16.6c0.1,0.1,0,0.1,0,0.2c0,0,0,0.1,0.1,0.1c0,0,0,0,0,0v-0.3h2.1
							c-0.6,0-1.5,0.3-1.8,0.4c-0.3,0.1,0,1.4,0,1.4c0,0-0.1-0.2-0.2-0.3s-0.1-1-0.1-1V17c-0.1,0-0.2,0-0.3-0.1
							C37,16.7,37,16.6,37.1,16.6z"/>
					</g>
					<g>
						<path class="st6" d="M39.3,16.5L39.3,16.5C39.2,16.5,39.3,16.5,39.3,16.5z"/>
						<path class="st6" d="M37.6,17.1l0.1-0.2l1-0.3h0.5c-0.2,0-0.5,0-0.8,0.1C37.8,16.9,37.6,17.1,37.6,17.1z"/>
					</g>
					<path class="st6" d="M37,17c-0.1,0.1,0,0.2,0,0.2c0,0,0.1,0,0.1,0c0,0.1,0.1,0.1,0.1,0.1c0.1,0,0.1,0,0.2,0c0,0,0,0,0,0
						c0,0,0,0,0,0.1c0,0,0,0,0,0c0,0,0,0.1,0,0.1c0,0,0,0,0,0c0,0-0.1,0.1-0.1,0.1c0,0,0,0.1,0,0.1c0,0,0,0,0,0c0,0,0,0,0,0
						c0,0,0,0.1,0,0.1c0,0,0,0,0,0c0,0,0,0,0,0.1c0,0,0,0.1,0.1,0.1c0.1,0,0.1-0.2,0.1-0.3c0,0,0-0.1,0-0.1c0,0,0-0.1,0-0.1
						c0,0,0,0,0-0.1c0-0.1,0-0.1,0-0.2c0,0,0-0.1,0-0.1c0,0,0,0,0,0c0.1-0.1,0.1-0.1,0.1-0.2c0,0,0,0,0,0c0,0,0,0,0,0c0,0,0,0,0,0
						c0,0,0.1,0,0.1,0c0.1,0,0.2,0,0.2,0c0,0,0,0,0,0c0,0,0,0,0.1,0c0.1,0,0.2,0,0.2,0c0.1,0,0.1-0.1,0.1-0.2c0,0,0.1,0,0.1,0
						c0.1,0.1,0.2,0.1,0.3,0.1c0,0,0,0,0,0c0,0,0,0,0.1,0c0.1,0,0.2-0.1,0.3-0.1c0,0,0,0,0.1,0c0,0,0.1,0,0.1,0.1c0.1,0,0.1,0,0.2,0
						c0,0,0,0,0,0.1c0,0,0,0,0,0c0,0,0,0,0,0.1c0.1,0,0.2,0,0.3-0.1c0.1,0,0.3,0,0.4,0c0,0,0.1,0,0.1,0c0,0,0,0,0,0c0,0,0.1,0,0.1,0
						c0,0.1,0.1,0.1,0.2,0.2c0.1,0,0.2,0,0.3-0.1c0,0,0,0,0-0.1c0,0,0.1,0,0.1,0c0,0.1-0.1,0.1-0.1,0.1c0,0,0,0,0,0
						c0.1,0,0.1,0,0.1-0.1c0,0,0,0,0,0c0,0,0,0.1,0.1,0.1c0,0.1,0,0.1,0,0.1c0,0-0.1,0.1-0.1,0.1c0,0,0.1,0.1,0.1,0.1
						c0,0.1,0,0.2,0,0.2c0,0.1,0,0.2,0,0.3c0,0,0,0.1,0,0.1c0,0,0,0,0,0c0,0.2,0,0.3,0,0.3c0,0,0.1-0.2,0.2-0.3
						c0.1,0,0.1-0.5,0.1-0.8c0,0,0,0,0,0c0,0,0.1,0,0.1,0c0,0,0-0.1,0-0.1c0,0,0,0,0,0c0,0,0,0,0,0c0.1-0.1,0.1-0.2,0.1-0.3
						c0,0,0,0,0,0c0.1-0.1,0.1-0.2,0-0.3c0,0,0-0.1,0-0.1c0-0.1,0-0.1-0.1-0.2c0,0,0.1-0.1,0.1-0.1c0-0.1,0-0.2-0.1-0.2c0,0,0,0,0,0
						c0,0,0,0,0,0c0,0,0-0.1,0-0.1c0.1-0.1,0.1-0.3,0-0.4c0,0,0,0-0.1,0c0,0,0,0,0,0c0-0.1,0-0.1-0.1-0.2c-0.1-0.1-0.2-0.2-0.4-0.2
						c0-0.1-0.1-0.3-0.3-0.3c-0.1,0-0.1,0-0.2,0c-0.1-0.1-0.3-0.1-0.5-0.1c0-0.1-0.1-0.1-0.2-0.2c0,0,0-0.1,0-0.1c0,0,0,0,0,0.1
						c0,0,0,0,0,0c-0.1,0-0.1,0-0.2,0c0,0,0,0,0,0c0,0-0.1,0-0.1,0c-0.1,0-0.1-0.1-0.2-0.1v0c-0.1,0-0.1,0-0.2,0c-0.1,0-0.2,0-0.3,0
						c-0.1,0-0.2,0.1-0.2,0.2c0,0,0,0,0,0c0,0,0,0,0,0c0-0.1,0.1-0.1,0.1-0.1s0,0-0.1,0.1c0,0,0,0,0,0c0,0-0.1,0-0.1,0
						c0,0-0.1,0-0.1,0c-0.1,0-0.1,0-0.2,0.1c-0.2,0-0.5,0.1-0.5,0.4c-0.1,0.1-0.1,0.2-0.2,0.3c-0.1,0-0.2,0.1-0.2,0.2
						c0,0,0,0.1,0,0.1c-0.1,0.1-0.2,0.2-0.2,0.3c0,0,0,0.1,0,0.2c0,0-0.1,0.1-0.1,0.1c0,0.1,0,0.2,0,0.3c0,0,0,0.1,0,0.1
						c0,0,0,0.1,0,0.1c0,0,0,0,0,0.1C36.9,16.7,36.9,16.8,37,17z M38.1,16.7c0,0,0.1,0,0.1,0c0,0,0,0.1-0.1,0.1c0,0,0,0,0,0
						C38.2,16.8,38.2,16.7,38.1,16.7C38.2,16.7,38.2,16.7,38.1,16.7z M37.9,16.7c0,0,0.1,0,0.2,0c0,0,0,0,0,0c0,0,0,0.1,0,0.1
						c0,0,0,0,0,0c0,0,0,0,0,0c0,0-0.1,0-0.1,0C37.9,16.8,37.9,16.7,37.9,16.7C37.9,16.7,37.9,16.7,37.9,16.7z M37.5,16.9
						C37.5,16.9,37.5,16.9,37.5,16.9C37.5,16.9,37.5,16.9,37.5,16.9C37.5,17,37.4,17,37.4,17c0,0,0,0,0,0c0,0,0,0,0,0
						c0,0,0-0.1,0-0.1c0-0.1,0-0.1,0-0.2c0,0,0,0,0-0.1l0.4,0.1c0,0,0,0,0,0c0,0,0,0,0,0.1c0,0.1,0,0.1-0.1,0.1c0-0.1,0-0.1,0-0.2
						c0-0.1-0.1-0.1-0.1,0C37.6,16.7,37.6,16.8,37.5,16.9C37.6,16.9,37.5,16.9,37.5,16.9z M37.4,17.2c0,0,0.1,0,0.1,0
						C37.5,17.1,37.5,17.2,37.4,17.2C37.5,17.2,37.5,17.2,37.4,17.2C37.5,17.2,37.5,17.2,37.4,17.2C37.4,17.2,37.4,17.2,37.4,17.2
						C37.4,17.2,37.4,17.2,37.4,17.2C37.4,17.2,37.4,17.2,37.4,17.2z"/>
					<g>
						<path class="st5" d="M41.4,17.5c0,0,0.1-0.4,0.1,0s-0.3,0.8-0.3,0.8L41.4,17.5z"/>
						<path class="st5" d="M37.3,17.5c0,0-0.1-0.4-0.1,0s0.3,0.8,0.3,0.8L37.3,17.5z"/>
					</g>
				</g>
				<g>
					<path class="st2" d="M35.1,25.1h8.5c0.2,0,0.3-0.1,0.3-0.3v0c0-0.2-0.1-0.3-0.3-0.3h-8.5c-0.2,0-0.3,0.1-0.3,0.3l0,0
						C34.8,25,34.9,25.1,35.1,25.1z"/>
					<path class="st2" d="M35.1,26.3h8.5c0.2,0,0.3-0.1,0.3-0.3v0c0-0.2-0.1-0.3-0.3-0.3h-8.5c-0.2,0-0.3,0.1-0.3,0.3l0,0
						C34.8,26.2,34.9,26.3,35.1,26.3z"/>
					<path class="st2" d="M35.1,27.5h8.5c0.2,0,0.3-0.1,0.3-0.3v0c0-0.2-0.1-0.3-0.3-0.3h-8.5c-0.2,0-0.3,0.1-0.3,0.3l0,0
						C34.8,27.4,34.9,27.5,35.1,27.5z"/>
				</g>
			</g>
			<g>
				<g>
					<path class="st3" d="M51.3,19.5l0.9,0.5l0.9-0.5c-0.1,0.5,0.4,1.4,0.4,1.4l-1.3,0.5l-1.3-0.5C50.9,20.9,51.4,19.9,51.3,19.5z"
						/>
					<path class="st8" d="M47.7,23.7c0-0.7,0.1-1.9,0.5-2.1c0.3-0.2,0.8-0.3,1.3-0.4l0,0l0,0c0.4-0.1,0.8-0.1,0.8-0.1l0.2-0.1
						l0.3-0.1l1.4,0.4l0,0l0,0l1.4-0.4l0.3,0.1l0.2,0.1c0,0,0.4,0,0.8,0.1l0,0l0,0c0.5,0.1,1.1,0.2,1.3,0.4c0.4,0.3,0.5,1.5,0.5,2.1
						H47.7z"/>
					<g>
						<path class="st5" d="M52.2,16.5h1.5c0.4,0,0.6,0.3,0.6,0.7c-0.1,0.5-0.2,1.1-0.3,1.4c-0.2,0.4-1,1.2-1.5,1.5
							c-0.2,0.1-0.3,0.1-0.5,0c-0.5-0.3-1.4-1-1.5-1.5c-0.1-0.3-0.2-0.9-0.3-1.4c-0.1-0.4,0.2-0.7,0.6-0.7H52.2z"/>
						<path class="st6" d="M52.2,16.5c-0.6,0-1.5,0.3-1.8,0.4c-0.3,0.1,0,1.4,0,1.4s-0.1-0.2-0.2-0.3s-0.1-1-0.1-1v-0.5H52.2z"/>
					</g>
					<path class="st7" d="M51.3,19.7c0-0.1,0-0.2,0-0.2l0.9,0.5l0.9-0.5c0,0.1,0,0.2,0,0.2c-0.2,0.2-0.5,0.4-0.7,0.4
						c-0.2,0.1-0.3,0.1-0.5,0C51.8,20.1,51.5,19.9,51.3,19.7z"/>
					<g>
						<path class="st5" d="M52.2,16.5h1.5c0.4,0,0.6,0.3,0.6,0.7c-0.1,0.5-0.2,1.1-0.3,1.4c-0.2,0.4-1,1.2-1.5,1.5
							c-0.2,0.1-0.3,0.1-0.5,0c-0.5-0.3-1.4-1-1.5-1.5c-0.1-0.3-0.2-0.9-0.3-1.4c-0.1-0.4,0.2-0.7,0.6-0.7H52.2z"/>
						<path class="st6" d="M52.2,16.5c-0.6,0-1.5,0.3-1.8,0.4c-0.3,0.1,0,1.4,0,1.4s-0.1-0.2-0.2-0.3s-0.1-1-0.1-1v-0.5H52.2z"/>
					</g>
					<g>
						<path class="st6" d="M52.2,16.5L52.2,16.5C52.1,16.5,52.1,16.5,52.2,16.5z"/>
						<path class="st6" d="M50.5,17.1l0.1-0.2l1-0.3h0.5c-0.2,0-0.5,0-0.8,0.1C50.7,16.9,50.5,17.1,50.5,17.1z"/>
					</g>
					<path class="st6" d="M51,14.8c0.2-0.2,0.5-0.6,0.5-0.6s-0.2,0.2,0,0.3c0.2,0.1,0.7-0.1,0.7-0.1v-0.3c0.2,0,0.5,0.3,0.5,0.3
						c0.1,0,0-0.3,0-0.3c0.1,0.4,0.5,0.7,0.5,0.7c1.1,0.4,1.1,1.8,1.1,1.8v0.5c0,0,0,0.9-0.1,1c-0.1,0.1-0.2,0.3-0.2,0.3
						c0,0,0.3-1.2,0-1.4c0,0-1.2-0.1-1.5-0.1c0,0,0.4-0.1,0.4-0.2c-0.8-0.1-2.3,0-2.3,0l-0.6-0.1C50,15.2,50.9,15,51,14.8z"/>
					<g>
						<path class="st5" d="M54.3,17.5c0,0,0.1-0.4,0.1,0s-0.3,0.8-0.3,0.8L54.3,17.5z"/>
						<path class="st5" d="M50.2,17.5c0,0-0.1-0.4-0.1,0s0.3,0.8,0.3,0.8L50.2,17.5z"/>
					</g>
				</g>
				<g>
					<path class="st2" d="M48,25.1h8.5c0.2,0,0.3-0.1,0.3-0.3v0c0-0.2-0.1-0.3-0.3-0.3H48c-0.2,0-0.3,0.1-0.3,0.3l0,0
						C47.7,25,47.8,25.1,48,25.1z"/>
					<path class="st2" d="M48,26.3h8.5c0.2,0,0.3-0.1,0.3-0.3v0c0-0.2-0.1-0.3-0.3-0.3H48c-0.2,0-0.3,0.1-0.3,0.3l0,0
						C47.7,26.2,47.8,26.3,48,26.3z"/>
					<path class="st2" d="M48,27.5h8.5c0.2,0,0.3-0.1,0.3-0.3v0c0-0.2-0.1-0.3-0.3-0.3H48c-0.2,0-0.3,0.1-0.3,0.3l0,0
						C47.7,27.4,47.8,27.5,48,27.5z"/>
				</g>
			</g>
			<g>
				<g>
					<path class="st3" d="M25.6,19.5l0.9,0.5l0.9-0.5c-0.1,0.5,0.4,1.4,0.4,1.4l-1.3,0.5l-1.3-0.5C25.2,20.9,25.6,19.9,25.6,19.5z"
						/>
					<path class="st9" d="M21.9,23.7c0-0.7,0.1-1.9,0.5-2.1c0.3-0.2,0.8-0.3,1.3-0.4l0,0l0,0c0.4-0.1,0.8-0.1,0.8-0.1l0.2-0.1
						l0.3-0.1l1.4,0.4l0,0l0,0l1.4-0.4l0.3,0.1l0.2,0.1c0,0,0.4,0,0.8,0.1l0,0l0,0c0.5,0.1,1.1,0.2,1.3,0.4c0.4,0.3,0.5,1.5,0.5,2.1
						H21.9z"/>
					<g>
						<path class="st5" d="M26.5,16.5H28c0.4,0,0.6,0.3,0.6,0.7c-0.1,0.5-0.2,1.1-0.3,1.4c-0.2,0.4-1,1.2-1.5,1.5
							c-0.2,0.1-0.3,0.1-0.5,0c-0.5-0.3-1.4-1-1.5-1.5c-0.1-0.3-0.2-0.9-0.3-1.4c-0.1-0.4,0.2-0.7,0.6-0.7H26.5z"/>
						<path class="st6" d="M26.5,16.5c-0.6,0-1.5,0.3-1.8,0.4c-0.3,0.1,0,1.4,0,1.4c0,0-0.1-0.2-0.2-0.3c-0.1-0.1-0.1-1-0.1-1v-0.5
							H26.5z"/>
					</g>
					<path class="st7" d="M25.6,19.7c0-0.1,0-0.2,0-0.2l0.9,0.5l0.9-0.5c0,0.1,0,0.2,0,0.2c-0.2,0.2-0.5,0.4-0.7,0.4
						c-0.2,0.1-0.3,0.1-0.5,0C26,20.1,25.8,19.9,25.6,19.7z"/>
					<g>
						<path class="st5" d="M26.5,16.5H28c0.4,0,0.6,0.3,0.6,0.7c-0.1,0.5-0.2,1.1-0.3,1.4c-0.2,0.4-1,1.2-1.5,1.5
							c-0.2,0.1-0.3,0.1-0.5,0c-0.5-0.3-1.4-1-1.5-1.5c-0.1-0.3-0.2-0.9-0.3-1.4c-0.1-0.4,0.2-0.7,0.6-0.7H26.5z"/>
						<path class="st6" d="M26.5,16.5c-0.6,0-1.5,0.3-1.8,0.4c-0.3,0.1,0,1.4,0,1.4c0,0-0.1-0.2-0.2-0.3c-0.1-0.1-0.1-1-0.1-1v-0.5
							H26.5z"/>
					</g>
					<g>
						<path class="st6" d="M26.4,16.5L26.4,16.5C26.4,16.5,26.4,16.5,26.4,16.5z"/>
						<path class="st6" d="M24.8,17.1l0.1-0.2l1-0.3h0.5c-0.2,0-0.5,0-0.8,0.1C24.9,16.9,24.8,17.1,24.8,17.1z"/>
					</g>
					<path class="st6" d="M25,16.7C25,16.7,25,16.7,25,16.7c0,0,0,0.1-0.1,0.1c0,0,0,0,0,0c0,0-0.1,0-0.1,0
						c-0.2,0.1-0.4,0.4-0.3,0.6c0,0,0,0.1,0.1,0c0,0,0,0,0,0c0.1-0.1,0.1-0.1,0.1-0.2c0,0,0,0,0,0c0,0.1-0.1,0.2-0.1,0.3
						c0,0,0,0,0,0c0,0,0,0,0,0c0,0,0,0.1,0,0.1c0,0,0,0,0,0c0-0.1,0.1-0.1,0.1-0.2c0,0,0,0,0.1,0c0.1-0.1,0.1-0.1,0.2-0.2
						c0.3-0.1,0.5-0.3,0.8-0.4c0,0,0,0,0,0c0.2,0,0.3,0,0.5-0.1c0,0,0,0,0,0c0,0,0,0.1,0,0.1c0.1,0,0.2,0,0.3,0c0,0,0,0-0.1,0
						c0,0,0,0.1,0,0.1c0.2,0,0.5,0,0.7-0.1c0.1,0,0.1,0,0.2,0c-0.1,0-0.1,0-0.2,0.1c0,0,0,0.1,0,0.1c0.2,0,0.5,0,0.7-0.1
						c0.2,0,0.3,0,0.3,0c0.3,0.1,0,1.4,0,1.4c0,0,0.1-0.2,0.2-0.3c0.1-0.1,0.1-1,0.1-1V17c0.2-0.5,0.1-1,0-1.5c0,0-0.1,0-0.1,0
						c0,0,0,0,0,0c-0.1-0.2-0.1-0.4-0.2-0.6c0,0-0.1,0-0.1,0c0-0.1-0.1-0.2-0.2-0.3c0,0-0.1,0,0,0c0,0,0,0.1,0,0.1
						c0-0.1-0.1-0.1-0.2-0.2c0,0-0.1,0-0.1,0c0,0,0,0-0.1-0.1c0,0,0,0,0,0c0,0-0.1-0.1-0.1-0.1c-0.1-0.1-0.1-0.2-0.2-0.2
						c0,0,0,0,0,0c0,0,0,0,0,0c0,0,0,0-0.1-0.1c0,0,0,0,0,0c0-0.1-0.1-0.1-0.1-0.2c0,0,0,0,0,0c0,0-0.1-0.1-0.1-0.1c0,0,0,0,0,0
						c-0.1-0.1-0.1-0.2-0.2-0.3c0,0,0,0,0,0c0,0,0,0,0,0.1c0,0-0.1-0.1-0.1-0.1c0,0,0,0,0,0c0-0.1-0.1-0.1-0.1-0.2c0,0,0,0,0,0
						c0,0,0,0,0,0c0,0,0,0,0,0c0,0,0,0,0-0.1c0,0,0,0,0,0c0,0,0,0,0,0.1c0,0,0,0,0,0c0,0,0,0,0,0c0,0,0,0,0,0c0,0,0,0,0,0
						c0,0,0,0,0,0c0,0,0,0,0,0c0,0,0,0,0,0c0,0,0,0,0,0c0,0,0,0,0,0c0,0,0,0,0,0c0,0,0,0.1-0.1,0.1c0,0-0.1,0-0.1,0c0,0,0,0,0,0
						c0,0-0.1,0.1-0.1,0.1c0,0,0-0.1,0-0.1c0,0,0-0.1,0,0c0,0,0,0,0,0.1c0,0,0,0,0,0c0,0,0,0.1-0.1,0.1c0,0,0-0.1,0-0.1
						c0,0,0-0.1,0,0c0,0,0,0,0,0.1c0,0,0,0,0,0c0,0,0,0,0,0c0,0,0,0,0,0c0,0,0,0,0,0c0,0,0,0,0,0c0,0.1-0.1,0.1-0.1,0.2c0,0,0,0,0,0
						c0,0-0.1,0.1-0.1,0.1c0,0,0,0,0,0c0,0-0.1,0.1-0.1,0.1c0,0,0,0-0.1,0c-0.1,0.1-0.1,0.1-0.1,0.2c0,0,0,0,0,0.1c0,0,0,0,0,0
						c0,0-0.1,0.1-0.1,0.1c0,0,0,0,0,0c0,0,0,0,0,0c0,0,0,0,0,0c0,0,0,0,0,0c0,0.1-0.1,0.1-0.1,0.2c0,0,0,0,0,0c0,0,0,0-0.1,0
						c-0.1,0.1-0.1,0.2-0.2,0.3c-0.2,0.3-0.4,0.6-0.3,1.3L25,16.7z M25.1,16.7c0,0,0.1,0,0.1,0c-0.1,0.1-0.2,0.2-0.3,0.2
						c0,0,0,0,0,0C25,16.8,25.1,16.7,25.1,16.7z"/>
					<g>
						<path class="st5" d="M28.5,17.5c0,0,0.1-0.4,0.1,0s-0.3,0.8-0.3,0.8L28.5,17.5z"/>
						<path class="st5" d="M24.4,17.5c0,0-0.1-0.4-0.1,0s0.3,0.8,0.3,0.8L24.4,17.5z"/>
					</g>
				</g>
				<g>
					<path class="st2" d="M22.2,25.1h8.5c0.2,0,0.3-0.1,0.3-0.3v0c0-0.2-0.1-0.3-0.3-0.3h-8.5c-0.2,0-0.3,0.1-0.3,0.3l0,0
						C21.9,25,22,25.1,22.2,25.1z"/>
					<path class="st2" d="M22.2,26.3h8.5c0.2,0,0.3-0.1,0.3-0.3v0c0-0.2-0.1-0.3-0.3-0.3h-8.5c-0.2,0-0.3,0.1-0.3,0.3l0,0
						C21.9,26.2,22,26.3,22.2,26.3z"/>
					<path class="st2" d="M22.2,27.5h8.5c0.2,0,0.3-0.1,0.3-0.3v0c0-0.2-0.1-0.3-0.3-0.3h-8.5c-0.2,0-0.3,0.1-0.3,0.3l0,0
						C21.9,27.4,22,27.5,22.2,27.5z"/>
				</g>
			</g>
			<g>
				<g>
					<path class="st3" d="M25.6,35.3l0.9,0.5l0.9-0.5c-0.1,0.5,0.4,1.4,0.4,1.4l-1.3,0.5l-1.3-0.5C25.2,36.7,25.6,35.7,25.6,35.3z"
						/>
					<path class="st10" d="M21.9,39.5c0-0.7,0.1-1.9,0.5-2.1c0.3-0.2,0.8-0.3,1.3-0.4l0,0l0,0c0.4-0.1,0.8-0.1,0.8-0.1l0.2-0.1
						l0.3-0.1l1.4,0.4l0,0l0,0l1.4-0.4l0.3,0.1l0.2,0.1c0,0,0.4,0,0.8,0.1l0,0l0,0c0.5,0.1,1.1,0.2,1.3,0.4c0.4,0.3,0.5,1.5,0.5,2.1
						H21.9z"/>
					<g>
						<path class="st5" d="M26.5,32.3H28c0.4,0,0.6,0.3,0.6,0.7c-0.1,0.5-0.2,1.1-0.3,1.4c-0.2,0.4-1,1.2-1.5,1.5
							c-0.2,0.1-0.3,0.1-0.5,0c-0.5-0.3-1.4-1-1.5-1.5c-0.1-0.3-0.2-0.9-0.3-1.4c-0.1-0.4,0.2-0.7,0.6-0.7H26.5z"/>
						<path class="st6" d="M26.5,32.3c-0.6,0-1.5,0.3-1.8,0.4c-0.3,0.1,0,1.4,0,1.4c0,0-0.1-0.2-0.2-0.3c-0.1-0.1-0.1-1-0.1-1v-0.5
							H26.5z"/>
					</g>
					<path class="st7" d="M25.6,35.5c0-0.1,0-0.2,0-0.2l0.9,0.5l0.9-0.5c0,0.1,0,0.2,0,0.2c-0.2,0.2-0.5,0.4-0.7,0.4
						c-0.2,0.1-0.3,0.1-0.5,0C26,35.9,25.8,35.7,25.6,35.5z"/>
					<g>
						<path class="st5" d="M26.5,32.3H28c0.4,0,0.6,0.3,0.6,0.7c-0.1,0.5-0.2,1.1-0.3,1.4c-0.2,0.4-1,1.2-1.5,1.5
							c-0.2,0.1-0.3,0.1-0.5,0c-0.5-0.3-1.4-1-1.5-1.5c-0.1-0.3-0.2-0.9-0.3-1.4c-0.1-0.4,0.2-0.7,0.6-0.7H26.5z"/>
						<path class="st11" d="M26.5,32.3c-0.6,0-1.5,0.3-1.8,0.4c-0.3,0.1,0,1.4,0,1.4c0,0-0.1-0.2-0.2-0.3c-0.1-0.1-0.1-1-0.1-1v-0.5
							H26.5z"/>
					</g>
					<g>
						<path class="st11" d="M26.4,32.3L26.4,32.3C26.4,32.3,26.4,32.3,26.4,32.3z"/>
						<path class="st11" d="M24.8,32.9l0.1-0.2l1-0.3h0.5c-0.2,0-0.5,0-0.8,0.1C24.9,32.7,24.8,32.9,24.8,32.9z"/>
					</g>
					<path class="st11" d="M25,32.5C25,32.5,25,32.5,25,32.5c0,0,0,0.1-0.1,0.1c0,0,0,0,0,0c0,0-0.1,0-0.1,0
						c-0.2,0.1-0.4,0.4-0.3,0.6c0,0,0,0.1,0.1,0c0,0,0,0,0,0c0.1-0.1,0.1-0.1,0.1-0.2c0,0,0,0,0,0c0,0.1-0.1,0.2-0.1,0.3
						c0,0,0,0,0,0c0,0,0,0,0,0c0,0,0,0.1,0,0.1c0,0,0,0,0,0c0-0.1,0.1-0.1,0.1-0.2c0,0,0,0,0.1,0c0.1-0.1,0.1-0.1,0.2-0.2
						c0.3-0.1,0.5-0.3,0.8-0.4c0,0,0,0,0,0c0.2,0,0.3,0,0.5-0.1c0,0,0,0,0,0c0,0,0,0.1,0,0.1c0.1,0,0.2,0,0.3,0c0,0,0,0-0.1,0
						c0,0,0,0.1,0,0.1c0.2,0,0.5,0,0.7-0.1c0.1,0,0.1,0,0.2,0c-0.1,0-0.1,0-0.2,0.1c0,0,0,0.1,0,0.1c0.2,0,0.5,0,0.7-0.1
						c0.2,0,0.3,0,0.3,0c0.3,0.1,0,1.4,0,1.4c0,0,0.1-0.2,0.2-0.3c0.1-0.1,0.1-1,0.1-1v-0.1c0.2-0.5,0.1-1,0-1.5c0,0-0.1,0-0.1,0
						c0,0,0,0,0,0c-0.1-0.2-0.1-0.4-0.2-0.6c0,0-0.1,0-0.1,0c0-0.1-0.1-0.2-0.2-0.3c0,0-0.1,0,0,0c0,0,0,0.1,0,0.1
						c0-0.1-0.1-0.1-0.2-0.2c0,0-0.1,0-0.1,0c0,0,0,0-0.1-0.1c0,0,0,0,0,0c0,0-0.1-0.1-0.1-0.1c-0.1-0.1-0.1-0.2-0.2-0.2
						c0,0,0,0,0,0c0,0,0,0,0,0c0,0,0,0-0.1-0.1c0,0,0,0,0,0c0-0.1-0.1-0.1-0.1-0.2c0,0,0,0,0,0c0,0-0.1-0.1-0.1-0.1c0,0,0,0,0,0
						c-0.1-0.1-0.1-0.2-0.2-0.3c0,0,0,0,0,0c0,0,0,0,0,0.1c0,0-0.1-0.1-0.1-0.1c0,0,0,0,0,0c0-0.1-0.1-0.1-0.1-0.2c0,0,0,0,0,0
						c0,0,0,0,0,0c0,0,0,0,0,0c0,0,0,0,0-0.1c0,0,0,0,0,0c0,0,0,0,0,0.1c0,0,0,0,0,0c0,0,0,0,0,0c0,0,0,0,0,0c0,0,0,0,0,0
						c0,0,0,0,0,0c0,0,0,0,0,0c0,0,0,0,0,0c0,0,0,0,0,0c0,0,0,0,0,0c0,0,0,0,0,0c0,0,0,0.1-0.1,0.1c0,0-0.1,0-0.1,0c0,0,0,0,0,0
						c0,0-0.1,0.1-0.1,0.1c0,0,0-0.1,0-0.1c0,0,0-0.1,0,0c0,0,0,0,0,0.1c0,0,0,0,0,0c0,0,0,0.1-0.1,0.1c0,0,0-0.1,0-0.1
						c0,0,0-0.1,0,0c0,0,0,0,0,0.1c0,0,0,0,0,0c0,0,0,0,0,0c0,0,0,0,0,0c0,0,0,0,0,0c0,0,0,0,0,0c0,0.1-0.1,0.1-0.1,0.2c0,0,0,0,0,0
						c0,0-0.1,0.1-0.1,0.1c0,0,0,0,0,0c0,0-0.1,0.1-0.1,0.1c0,0,0,0-0.1,0c-0.1,0.1-0.1,0.1-0.1,0.2c0,0,0,0,0,0.1c0,0,0,0,0,0
						c0,0-0.1,0.1-0.1,0.1c0,0,0,0,0,0c0,0,0,0,0,0c0,0,0,0,0,0c0,0,0,0,0,0c0,0.1-0.1,0.1-0.1,0.2c0,0,0,0,0,0c0,0,0,0-0.1,0
						c-0.1,0.1-0.1,0.2-0.2,0.3c-0.2,0.3-0.4,0.6-0.3,1.3L25,32.5z M25.1,32.5c0,0,0.1,0,0.1,0c-0.1,0.1-0.2,0.2-0.3,0.2
						c0,0,0,0,0,0C25,32.6,25.1,32.5,25.1,32.5z"/>
					<g>
						<path class="st5" d="M28.5,33.3c0,0,0.1-0.4,0.1,0c0,0.4-0.3,0.8-0.3,0.8L28.5,33.3z"/>
						<path class="st5" d="M24.4,33.3c0,0-0.1-0.4-0.1,0c0,0.4,0.3,0.8,0.3,0.8L24.4,33.3z"/>
					</g>
				</g>
				<g>
					<path class="st2" d="M22.2,41h8.5c0.2,0,0.3-0.1,0.3-0.3l0,0c0-0.2-0.1-0.3-0.3-0.3h-8.5c-0.2,0-0.3,0.1-0.3,0.3l0,0
						C21.9,40.9,22,41,22.2,41z"/>
					<path class="st2" d="M22.2,42.2h8.5c0.2,0,0.3-0.1,0.3-0.3l0,0c0-0.2-0.1-0.3-0.3-0.3h-8.5c-0.2,0-0.3,0.1-0.3,0.3l0,0
						C21.9,42.1,22,42.2,22.2,42.2z"/>
					<path class="st2" d="M22.2,43.4h8.5c0.2,0,0.3-0.1,0.3-0.3l0,0c0-0.2-0.1-0.3-0.3-0.3h-8.5c-0.2,0-0.3,0.1-0.3,0.3l0,0
						C21.9,43.2,22,43.4,22.2,43.4z"/>
				</g>
			</g>
			<g>
				<g>
					<path class="st3" d="M38.5,35.3l0.9,0.5l0.9-0.5c-0.1,0.5,0.4,1.4,0.4,1.4l-1.3,0.5l-1.3-0.5C38.1,36.7,38.5,35.7,38.5,35.3z"
						/>
					<path class="st12" d="M34.8,39.5c0-0.7,0.1-1.9,0.5-2.1c0.3-0.2,0.8-0.3,1.3-0.4l0,0l0,0c0.4-0.1,0.8-0.1,0.8-0.1l0.2-0.1
						l0.3-0.1l1.4,0.4l0,0l0,0l1.4-0.4l0.3,0.1l0.2,0.1c0,0,0.4,0,0.8,0.1l0,0l0,0c0.5,0.1,1.1,0.2,1.3,0.4c0.4,0.3,0.5,1.5,0.5,2.1
						H34.8z"/>
					<g>
						<path class="st5" d="M39.3,32.3h1.5c0.4,0,0.6,0.3,0.6,0.7c-0.1,0.5-0.2,1.1-0.3,1.4c-0.2,0.4-1,1.2-1.5,1.5
							c-0.2,0.1-0.3,0.1-0.5,0c-0.5-0.3-1.4-1-1.5-1.5c-0.1-0.3-0.2-0.9-0.3-1.4c-0.1-0.4,0.2-0.7,0.6-0.7H39.3z"/>
						<path class="st6" d="M39.3,32.3c-0.6,0-1.5,0.3-1.8,0.4c-0.3,0.1,0,1.4,0,1.4c0,0-0.1-0.2-0.2-0.3c-0.1-0.1-0.1-1-0.1-1v-0.5
							H39.3z"/>
					</g>
					<path class="st7" d="M38.4,35.5c0-0.1,0-0.2,0-0.2l0.9,0.5l0.9-0.5c0,0.1,0,0.2,0,0.2c-0.2,0.2-0.5,0.4-0.7,0.4
						c-0.2,0.1-0.3,0.1-0.5,0C38.9,35.9,38.7,35.7,38.4,35.5z"/>
					<g>
						<path class="st5" d="M39.3,32.3h1.5c0.4,0,0.6,0.3,0.6,0.7c-0.1,0.5-0.2,1.1-0.3,1.4c-0.2,0.4-1,1.2-1.5,1.5
							c-0.2,0.1-0.3,0.1-0.5,0c-0.5-0.3-1.4-1-1.5-1.5c-0.1-0.3-0.2-0.9-0.3-1.4c-0.1-0.4,0.2-0.7,0.6-0.7H39.3z"/>
						<path class="st11" d="M37.1,32.4C37.2,32.4,37.2,32.4,37.1,32.4c0.1,0.1,0,0.1,0,0.2c0,0,0,0.1,0.1,0.1c0,0,0,0,0,0v-0.3h2.1
							c-0.6,0-1.5,0.3-1.8,0.4c-0.3,0.1,0,1.4,0,1.4c0,0-0.1-0.2-0.2-0.3c-0.1-0.1-0.1-1-0.1-1v-0.1c-0.1,0-0.2,0-0.3-0.1
							C37,32.5,37,32.4,37.1,32.4z"/>
					</g>
					<g>
						<path class="st6" d="M39.3,32.3L39.3,32.3C39.2,32.3,39.3,32.3,39.3,32.3z"/>
						<path class="st11" d="M37.6,32.9l0.1-0.2l1-0.3h0.5c-0.2,0-0.5,0-0.8,0.1C37.8,32.7,37.6,32.9,37.6,32.9z"/>
					</g>
					<path class="st11" d="M37,32.8c-0.1,0.1,0,0.2,0,0.2c0,0,0.1,0,0.1,0c0,0.1,0.1,0.1,0.1,0.1c0.1,0,0.1,0,0.2,0c0,0,0,0,0,0
						c0,0,0,0,0,0.1c0,0,0,0,0,0c0,0,0,0.1,0,0.1c0,0,0,0,0,0c0,0-0.1,0.1-0.1,0.1c0,0,0,0.1,0,0.1c0,0,0,0,0,0c0,0,0,0,0,0
						c0,0,0,0.1,0,0.1c0,0,0,0,0,0c0,0,0,0,0,0.1c0,0,0,0.1,0.1,0.1c0.1,0,0.1-0.2,0.1-0.3c0,0,0-0.1,0-0.1c0,0,0-0.1,0-0.1
						c0,0,0,0,0-0.1c0-0.1,0-0.1,0-0.2c0,0,0-0.1,0-0.1c0,0,0,0,0,0c0.1-0.1,0.1-0.1,0.1-0.2c0,0,0,0,0,0c0,0,0,0,0,0c0,0,0,0,0,0
						c0,0,0.1,0,0.1,0c0.1,0,0.2,0,0.2,0c0,0,0,0,0,0c0,0,0,0,0.1,0c0.1,0,0.2,0,0.2,0c0.1,0,0.1-0.1,0.1-0.2c0,0,0.1,0,0.1,0
						c0.1,0.1,0.2,0.1,0.3,0.1c0,0,0,0,0,0c0,0,0,0,0.1,0c0.1,0,0.2-0.1,0.3-0.1c0,0,0,0,0.1,0c0,0,0.1,0,0.1,0.1c0.1,0,0.1,0,0.2,0
						c0,0,0,0,0,0.1c0,0,0,0,0,0c0,0,0,0,0,0.1c0.1,0,0.2,0,0.3-0.1c0.1,0,0.3,0,0.4,0c0,0,0.1,0,0.1,0c0,0,0,0,0,0c0,0,0.1,0,0.1,0
						c0,0.1,0.1,0.1,0.2,0.2c0.1,0,0.2,0,0.3-0.1c0,0,0,0,0-0.1c0,0,0.1,0,0.1,0c0,0.1-0.1,0.1-0.1,0.1c0,0,0,0,0,0
						c0.1,0,0.1,0,0.1-0.1c0,0,0,0,0,0c0,0,0,0.1,0.1,0.1c0,0.1,0,0.1,0,0.1c0,0-0.1,0.1-0.1,0.1c0,0,0.1,0.1,0.1,0.1
						c0,0.1,0,0.2,0,0.2c0,0.1,0,0.2,0,0.3c0,0,0,0.1,0,0.1c0,0,0,0,0,0c0,0.2,0,0.3,0,0.3c0,0,0.1-0.2,0.2-0.3
						c0.1,0,0.1-0.5,0.1-0.8c0,0,0,0,0,0c0,0,0.1,0,0.1,0c0,0,0-0.1,0-0.1c0,0,0,0,0,0c0,0,0,0,0,0c0.1-0.1,0.1-0.2,0.1-0.3
						c0,0,0,0,0,0c0.1-0.1,0.1-0.2,0-0.3c0,0,0-0.1,0-0.1c0-0.1,0-0.1-0.1-0.2c0,0,0.1-0.1,0.1-0.1c0-0.1,0-0.2-0.1-0.2c0,0,0,0,0,0
						c0,0,0,0,0,0c0,0,0-0.1,0-0.1c0.1-0.1,0.1-0.3,0-0.4c0,0,0,0-0.1,0c0,0,0,0,0,0c0-0.1,0-0.1-0.1-0.2c-0.1-0.1-0.2-0.2-0.4-0.2
						c0-0.1-0.1-0.3-0.3-0.3c-0.1,0-0.1,0-0.2,0c-0.1-0.1-0.3-0.1-0.5-0.1c0-0.1-0.1-0.1-0.2-0.2c0,0,0-0.1,0-0.1c0,0,0,0,0,0.1
						c0,0,0,0,0,0c-0.1,0-0.1,0-0.2,0c0,0,0,0,0,0c0,0-0.1,0-0.1,0c-0.1,0-0.1-0.1-0.2-0.1v0c-0.1,0-0.1,0-0.2,0c-0.1,0-0.2,0-0.3,0
						c-0.1,0-0.2,0.1-0.2,0.2c0,0,0,0,0,0c0,0,0,0,0,0c0-0.1,0.1-0.1,0.1-0.1s0,0-0.1,0.1c0,0,0,0,0,0c0,0-0.1,0-0.1,0
						c0,0-0.1,0-0.1,0c-0.1,0-0.1,0-0.2,0.1c-0.2,0-0.5,0.1-0.5,0.4c-0.1,0.1-0.1,0.2-0.2,0.3c-0.1,0-0.2,0.1-0.2,0.2
						c0,0,0,0.1,0,0.1c-0.1,0.1-0.2,0.2-0.2,0.3c0,0,0,0.1,0,0.2c0,0-0.1,0.1-0.1,0.1c0,0.1,0,0.2,0,0.3c0,0,0,0.1,0,0.1
						c0,0,0,0.1,0,0.1c0,0,0,0,0,0.1C36.9,32.5,36.9,32.6,37,32.8z M38.1,32.4c0,0,0.1,0,0.1,0c0,0,0,0.1-0.1,0.1c0,0,0,0,0,0
						C38.2,32.6,38.2,32.5,38.1,32.4C38.2,32.5,38.2,32.5,38.1,32.4z M37.9,32.5c0,0,0.1,0,0.2,0c0,0,0,0,0,0c0,0,0,0.1,0,0.1
						c0,0,0,0,0,0c0,0,0,0,0,0c0,0-0.1,0-0.1,0C37.9,32.6,37.9,32.5,37.9,32.5C37.9,32.5,37.9,32.5,37.9,32.5z M37.5,32.7
						C37.5,32.7,37.5,32.7,37.5,32.7C37.5,32.7,37.5,32.7,37.5,32.7c-0.1,0.1-0.1,0.1-0.2,0.1c0,0,0,0,0,0c0,0,0,0,0,0
						c0,0,0-0.1,0-0.1c0-0.1,0-0.1,0-0.2c0,0,0,0,0-0.1l0.4,0.1c0,0,0,0,0,0c0,0,0,0,0,0.1c0,0.1,0,0.1-0.1,0.1c0-0.1,0-0.1,0-0.2
						c0-0.1-0.1-0.1-0.1,0C37.6,32.5,37.6,32.6,37.5,32.7C37.6,32.7,37.5,32.7,37.5,32.7z M37.4,33c0,0,0.1,0,0.1,0
						C37.5,32.9,37.5,33,37.4,33C37.5,33,37.5,33,37.4,33C37.5,33,37.5,33,37.4,33C37.4,33,37.4,33,37.4,33C37.4,33,37.4,33,37.4,33
						C37.4,33,37.4,33,37.4,33z"/>
					<g>
						<path class="st5" d="M41.4,33.3c0,0,0.1-0.4,0.1,0c0,0.4-0.3,0.8-0.3,0.8L41.4,33.3z"/>
						<path class="st5" d="M37.3,33.3c0,0-0.1-0.4-0.1,0c0,0.4,0.3,0.8,0.3,0.8L37.3,33.3z"/>
					</g>
				</g>
				<g>
					<path class="st2" d="M35.1,41h8.5c0.2,0,0.3-0.1,0.3-0.3l0,0c0-0.2-0.1-0.3-0.3-0.3h-8.5c-0.2,0-0.3,0.1-0.3,0.3v0
						C34.8,40.9,34.9,41,35.1,41z"/>
					<path class="st2" d="M35.1,42.2h8.5c0.2,0,0.3-0.1,0.3-0.3v0c0-0.2-0.1-0.3-0.3-0.3h-8.5c-0.2,0-0.3,0.1-0.3,0.3v0
						C34.8,42.1,34.9,42.2,35.1,42.2z"/>
					<path class="st2" d="M35.1,43.4h8.5c0.2,0,0.3-0.1,0.3-0.3v0c0-0.2-0.1-0.3-0.3-0.3h-8.5c-0.2,0-0.3,0.1-0.3,0.3v0
						C34.8,43.2,34.9,43.4,35.1,43.4z"/>
				</g>
			</g>
			<g>
				<g>
					<path class="st3" d="M51.3,35.3l0.9,0.5l0.9-0.5c-0.1,0.5,0.4,1.4,0.4,1.4l-1.3,0.5l-1.3-0.5C50.9,36.7,51.4,35.7,51.3,35.3z"
						/>
					<path class="st13" d="M47.7,39.5c0-0.7,0.1-1.9,0.5-2.1c0.3-0.2,0.8-0.3,1.3-0.4l0,0l0,0c0.4-0.1,0.8-0.1,0.8-0.1l0.2-0.1
						l0.3-0.1l1.4,0.4l0,0l0,0l1.4-0.4l0.3,0.1l0.2,0.1c0,0,0.4,0,0.8,0.1l0,0l0,0c0.5,0.1,1.1,0.2,1.3,0.4c0.4,0.3,0.5,1.5,0.5,2.1
						H47.7z"/>
					<g>
						<path class="st5" d="M52.2,32.3h1.5c0.4,0,0.6,0.3,0.6,0.7c-0.1,0.5-0.2,1.1-0.3,1.4c-0.2,0.4-1,1.2-1.5,1.5
							c-0.2,0.1-0.3,0.1-0.5,0c-0.5-0.3-1.4-1-1.5-1.5c-0.1-0.3-0.2-0.9-0.3-1.4c-0.1-0.4,0.2-0.7,0.6-0.7H52.2z"/>
						<path class="st6" d="M52.2,32.3c-0.6,0-1.5,0.3-1.8,0.4c-0.3,0.1,0,1.4,0,1.4c0,0-0.1-0.2-0.2-0.3c-0.1-0.1-0.1-1-0.1-1v-0.5
							H52.2z"/>
					</g>
					<path class="st7" d="M51.3,35.5c0-0.1,0-0.2,0-0.2l0.9,0.5l0.9-0.5c0,0.1,0,0.2,0,0.2c-0.2,0.2-0.5,0.4-0.7,0.4
						C52.3,36,52.1,36,52,36C51.8,35.9,51.5,35.7,51.3,35.5z"/>
					<g>
						<path class="st5" d="M52.2,32.3h1.5c0.4,0,0.6,0.3,0.6,0.7c-0.1,0.5-0.2,1.1-0.3,1.4c-0.2,0.4-1,1.2-1.5,1.5
							c-0.2,0.1-0.3,0.1-0.5,0c-0.5-0.3-1.4-1-1.5-1.5c-0.1-0.3-0.2-0.9-0.3-1.4c-0.1-0.4,0.2-0.7,0.6-0.7H52.2z"/>
						<path class="st11" d="M52.2,32.3c-0.6,0-1.5,0.3-1.8,0.4c-0.3,0.1,0,1.4,0,1.4c0,0-0.1-0.2-0.2-0.3c-0.1-0.1-0.1-1-0.1-1v-0.5
							H52.2z"/>
					</g>
					<g>
						<path class="st6" d="M52.2,32.3L52.2,32.3C52.1,32.3,52.1,32.3,52.2,32.3z"/>
						<path class="st11" d="M50.5,32.9l0.1-0.2l1-0.3h0.5c-0.2,0-0.5,0-0.8,0.1C50.7,32.7,50.5,32.9,50.5,32.9z"/>
					</g>
					<path class="st11" d="M51,30.6c0.2-0.2,0.5-0.6,0.5-0.6s-0.2,0.2,0,0.3c0.2,0.1,0.7-0.1,0.7-0.1v-0.3c0.2,0,0.5,0.3,0.5,0.3
						c0.1,0,0-0.3,0-0.3c0.1,0.4,0.5,0.7,0.5,0.7c1.1,0.4,1.1,1.8,1.1,1.8v0.5c0,0,0,0.9-0.1,1c-0.1,0.1-0.2,0.3-0.2,0.3
						c0,0,0.3-1.2,0-1.4c0,0-1.2-0.1-1.5-0.1c0,0,0.4-0.1,0.4-0.2c-0.8-0.1-2.3,0-2.3,0l-0.6-0.1C50,31,50.9,30.8,51,30.6z"/>
					<g>
						<path class="st5" d="M54.3,33.3c0,0,0.1-0.4,0.1,0c0,0.4-0.3,0.8-0.3,0.8L54.3,33.3z"/>
						<path class="st5" d="M50.2,33.3c0,0-0.1-0.4-0.1,0c0,0.4,0.3,0.8,0.3,0.8L50.2,33.3z"/>
					</g>
				</g>
				<g>
					<path class="st2" d="M48,41h8.5c0.2,0,0.3-0.1,0.3-0.3l0,0c0-0.2-0.1-0.3-0.3-0.3H48c-0.2,0-0.3,0.1-0.3,0.3v0
						C47.7,40.9,47.8,41,48,41z"/>
					<path class="st2" d="M48,42.2h8.5c0.2,0,0.3-0.1,0.3-0.3v0c0-0.2-0.1-0.3-0.3-0.3H48c-0.2,0-0.3,0.1-0.3,0.3v0
						C47.7,42.1,47.8,42.2,48,42.2z"/>
					<path class="st2" d="M48,43.4h8.5c0.2,0,0.3-0.1,0.3-0.3v0c0-0.2-0.1-0.3-0.3-0.3H48c-0.2,0-0.3,0.1-0.3,0.3v0
						C47.7,43.2,47.8,43.4,48,43.4z"/>
				</g>
			</g>
			<circle class="st14" cx="32.6" cy="19.8" r="8.2"/>
			<circle class="st1" cx="32.6" cy="19.8" r="8.3"/>
			<circle class="st15" cx="31.3" cy="22.3" r="2.1"/>
			<path class="st16" d="M35.3,30l2.6,6.8l-0.2,0.1c-0.5,0.2-0.7,0.7-0.6,1.2l6.1,16c0.2,0.5,0.7,0.7,1.2,0.6l2.5-0.9
				c0.5-0.2,0.7-0.7,0.6-1.2l-6.1-16c-0.2-0.5-0.7-0.7-1.2-0.6L39.9,36l-2.6-6.8c4.8-2.4,7.1-8,5.1-13.1c-2.1-5.4-8.1-8.2-13.6-6.1
				c-5.4,2.1-8.2,8.1-6.1,13.6C24.7,28.6,30.2,31.4,35.3,30z M35.5,27.5c-4.3,1.6-9-0.5-10.6-4.8c-1.6-4.3,0.5-9,4.8-10.6
				c4.3-1.6,9,0.5,10.6,4.8C41.9,21.1,39.8,25.9,35.5,27.5z"/>
			<circle class="st1" cx="32.6" cy="19.8" r="8.9"/>
			<g>
				<defs>
					<circle id="SVGID_1_" cx="32.6" cy="19.8" r="8.9"/>
				</defs>
				<clipPath id="SVGID_2_">
					<use xlink:href="#SVGID_1_"  style="overflow:visible;"/>
				</clipPath>
				<g class="st17">
					<g>
						<path class="st3" d="M28.1,18l1.4,0.8l1.4-0.8c-0.1,0.7,0.6,2.3,0.6,2.3l-2,0.8l-2-0.8C27.5,20.2,28.2,18.7,28.1,18z"/>
						<path class="st9" d="M22.4,24.6c0-1,0.2-2.9,0.8-3.4c0.4-0.3,1.3-0.5,2.1-0.6l0,0l0,0c0.7-0.1,1.3-0.1,1.3-0.1l0.4-0.2
							l0.5-0.2l2.1,0.7l0,0l0,0l2.1-0.7l0.5,0.2l0.4,0.2c0,0,0.6,0,1.3,0.1l0,0l0,0c0.8,0.1,1.7,0.3,2.1,0.6
							c0.6,0.4,0.7,2.3,0.8,3.4H22.4z"/>
						<g>
							<path class="st5" d="M29.5,13.4h2.4c0.6,0,1,0.5,0.9,1.1c-0.1,0.7-0.3,1.7-0.5,2.2c-0.2,0.6-1.5,1.9-2.4,2.3
								c-0.2,0.1-0.5,0.1-0.8,0c-0.9-0.4-2.1-1.6-2.4-2.3c-0.2-0.5-0.4-1.4-0.5-2.2c-0.1-0.6,0.3-1.1,0.9-1.1H29.5z"/>
							<path class="st6" d="M29.5,13.4c-1,0-2.4,0.5-2.8,0.7c-0.4,0.2,0.1,2.1,0,2.1c-0.1,0-0.2-0.3-0.3-0.4
								c-0.1-0.1-0.2-1.5-0.2-1.5v-0.8H29.5z"/>
						</g>
						<path class="st7" d="M28.1,18.3c0-0.1,0-0.3,0-0.4l1.4,0.8l1.4-0.8c0,0.1,0,0.2,0,0.4c-0.3,0.3-0.7,0.6-1,0.7
							c-0.2,0.1-0.5,0.1-0.8,0C28.8,18.9,28.5,18.6,28.1,18.3z"/>
						<g>
							<path class="st5" d="M29.5,13.4h2.4c0.6,0,1,0.5,0.9,1.1c-0.1,0.7-0.3,1.7-0.5,2.2c-0.2,0.6-1.5,1.9-2.4,2.3
								c-0.2,0.1-0.5,0.1-0.8,0c-0.9-0.4-2.1-1.6-2.4-2.3c-0.2-0.5-0.4-1.4-0.5-2.2c-0.1-0.6,0.3-1.1,0.9-1.1H29.5z"/>
							<path class="st6" d="M29.5,13.4c-1,0-2.4,0.5-2.8,0.7c-0.4,0.2,0.1,2.1,0,2.1c-0.1,0-0.2-0.3-0.3-0.4
								c-0.1-0.1-0.2-1.5-0.2-1.5v-0.8H29.5z"/>
						</g>
						<g>
							<path class="st6" d="M29.4,13.4h-0.1C29.3,13.4,29.4,13.4,29.4,13.4z"/>
							<path class="st6" d="M26.9,14.2l0.2-0.4l1.5-0.5h0.7c-0.4,0-0.8,0.1-1.2,0.2C27.1,14,26.9,14.2,26.9,14.2z"/>
						</g>
						<path class="st6" d="M27.2,13.6C27.2,13.6,27.2,13.6,27.2,13.6c0,0.1-0.1,0.1-0.1,0.2c0,0,0,0,0,0c0,0-0.1-0.1-0.1,0
							c-0.3,0.2-0.6,0.6-0.5,1c0,0,0.1,0.1,0.1,0c0,0,0,0,0,0c0.1-0.1,0.2-0.2,0.2-0.3c0,0,0,0,0,0c-0.1,0.2-0.1,0.3-0.2,0.5
							c0,0,0,0.1,0.1,0c0,0,0,0,0,0c0,0.1,0,0.2,0,0.2c0,0,0.1,0.1,0.1,0c0-0.1,0.1-0.2,0.2-0.3c0,0,0.1,0,0.1,0
							c0.1-0.1,0.2-0.2,0.3-0.3c0.4-0.2,0.8-0.4,1.2-0.7c0,0,0,0.1,0,0.1c0.2,0,0.5-0.1,0.7-0.1c0,0,0,0,0,0c-0.1,0,0,0.1,0,0.1
							c0.2,0,0.3,0,0.5,0c0,0-0.1,0-0.1,0c-0.1,0-0.1,0.1,0,0.1c0.4,0,0.8-0.1,1.2-0.1c0.1,0,0.2,0,0.3,0c-0.1,0-0.2,0.1-0.3,0.1
							c-0.1,0,0,0.1,0,0.1c0.4,0,0.7-0.1,1.1-0.1c0.3,0,0.5,0,0.5,0c0.4,0.2-0.1,2.1,0,2.1c0.1,0,0.2-0.3,0.3-0.4
							c0.1-0.1,0.2-1.5,0.2-1.5v-0.2c0.2-0.7,0.2-1.6,0-2.3c0-0.1-0.1-0.1-0.1,0c0,0,0,0,0,0c-0.1-0.3-0.2-0.6-0.4-0.9
							c0-0.1-0.1,0-0.1,0c-0.1-0.2-0.2-0.3-0.2-0.5c0,0-0.1,0-0.1,0c0,0.1,0,0.1,0.1,0.2c-0.1-0.1-0.1-0.2-0.2-0.3c0,0-0.1,0-0.1,0
							c0,0-0.1-0.1-0.1-0.1c0,0,0,0,0,0c0-0.1-0.1-0.1-0.1-0.2c-0.1-0.1-0.2-0.2-0.3-0.4c0,0-0.1,0,0,0c0,0,0,0.1,0,0.1
							c0,0-0.1-0.1-0.1-0.1c0,0,0,0,0,0c-0.1-0.1-0.1-0.2-0.2-0.3c0,0,0,0-0.1,0c0-0.1-0.1-0.1-0.1-0.2c0,0,0,0,0,0
							c-0.1-0.1-0.2-0.3-0.3-0.4c0,0-0.1,0-0.1,0c0,0,0,0.1,0,0.1c0-0.1-0.1-0.1-0.1-0.2c0,0,0,0,0,0c-0.1-0.1-0.1-0.2-0.2-0.3
							c0,0,0,0,0,0c0,0,0,0,0,0c0,0,0,0,0,0c0,0,0-0.1-0.1-0.1c0,0,0,0,0,0c0,0,0,0.1,0,0.1c0,0,0,0,0,0.1c0,0,0,0,0,0.1
							c0,0,0,0,0,0c0,0,0,0,0,0c0,0,0,0,0,0c0,0,0,0,0,0c0,0,0,0-0.1,0c0,0,0,0,0,0.1c0,0,0,0,0,0c0,0,0,0,0,0
							c0,0.1-0.1,0.1-0.1,0.2c0,0-0.1,0-0.1,0c0,0,0,0,0,0C29.2,8.9,29.1,9,29.1,9c0,0,0-0.1,0.1-0.1c0,0,0-0.1-0.1,0
							c0,0,0,0.1-0.1,0.1c0,0,0,0,0,0c0,0.1-0.1,0.1-0.1,0.2c0,0,0-0.1,0.1-0.1c0,0,0-0.1-0.1,0c0,0,0,0.1-0.1,0.1c0,0,0,0,0,0
							c0,0,0,0,0,0c0,0,0-0.1-0.1,0c0,0,0,0,0,0c0,0,0,0,0,0c-0.1,0.1-0.1,0.2-0.2,0.3c0,0-0.1,0-0.1,0c0,0.1-0.1,0.1-0.1,0.2
							c0,0,0,0,0,0c-0.1,0.1-0.1,0.1-0.2,0.2c0,0-0.1,0-0.1,0C28,9.8,27.9,9.9,27.8,10c0,0-0.1,0.1-0.1,0.1c0,0,0,0-0.1,0
							c0,0.1-0.1,0.1-0.1,0.2c0,0,0,0,0,0.1c0,0-0.1,0-0.1,0c0,0,0,0,0,0c0,0,0,0-0.1,0c-0.1,0.1-0.1,0.2-0.2,0.4c0,0,0,0,0,0.1
							c0,0-0.1,0-0.1,0c-0.1,0.2-0.2,0.3-0.3,0.5c-0.3,0.4-0.6,1-0.5,2L27.2,13.6z M27.4,13.6c0.1,0,0.1,0,0.2,0
							c-0.2,0.1-0.3,0.2-0.4,0.4c0,0,0,0,0,0C27.2,13.8,27.3,13.7,27.4,13.6z"/>
						<g>
							<path class="st5" d="M32.7,14.9c0,0,0.2-0.6,0.2,0.1c0,0.7-0.5,1.2-0.5,1.2L32.7,14.9z"/>
							<path class="st5" d="M26.3,14.9c0,0-0.2-0.6-0.2,0.1c0,0.7,0.5,1.2,0.5,1.2L26.3,14.9z"/>
						</g>
					</g>
					<g>
						<path class="st2" d="M22.9,26.8h13.3c0.3,0,0.5-0.2,0.5-0.5l0,0c0-0.3-0.2-0.5-0.5-0.5H22.9c-0.3,0-0.5,0.2-0.5,0.5v0
							C22.4,26.6,22.6,26.8,22.9,26.8z"/>
						<path class="st2" d="M22.9,28.7h13.3c0.3,0,0.5-0.2,0.5-0.5v0c0-0.3-0.2-0.5-0.5-0.5H22.9c-0.3,0-0.5,0.2-0.5,0.5l0,0
							C22.4,28.4,22.6,28.7,22.9,28.7z"/>
						<path class="st2" d="M22.9,30.5h13.3c0.3,0,0.5-0.2,0.5-0.5v0c0-0.3-0.2-0.5-0.5-0.5H22.9c-0.3,0-0.5,0.2-0.5,0.5v0
							C22.4,30.3,22.6,30.5,22.9,30.5z"/>
					</g>
				</g>
				<g class="st17">
					<path class="st3" d="M45.8,17.5l1.5,0.9l1.5-0.9c-0.1,0.8,0.7,2.4,0.7,2.4l-2.1,0.9l-2.1-0.9C45.1,19.8,45.9,18.3,45.8,17.5z"
						/>
					<path class="st4" d="M39.8,24.4c0-1.1,0.2-3,0.8-3.5c0.4-0.3,1.4-0.5,2.2-0.6l0,0l0,0c0.7-0.1,1.3-0.1,1.3-0.1l0.4-0.2l0.5-0.2
						l2.2,0.7l0,0l0,0l2.2-0.7L50,20l0.4,0.2c0,0,0.6,0,1.3,0.1l0,0l0,0c0.8,0.1,1.8,0.3,2.2,0.6c0.6,0.5,0.8,2.4,0.8,3.5H39.8z"/>
					<g>
						<path class="st5" d="M47.2,12.7h2.5c0.6,0,1.1,0.5,1,1.1c-0.1,0.8-0.3,1.8-0.5,2.3c-0.3,0.7-1.6,2-2.5,2.4
							c-0.3,0.1-0.6,0.1-0.8,0c-0.9-0.4-2.2-1.7-2.5-2.4c-0.2-0.5-0.4-1.5-0.5-2.3c-0.1-0.6,0.4-1.1,1-1.1H47.2z"/>
						<path class="st6" d="M47.2,12.7c-1,0-2.5,0.5-2.9,0.7c-0.4,0.2,0.1,2.2,0,2.2c-0.1,0-0.2-0.4-0.3-0.5
							c-0.1-0.1-0.2-1.6-0.2-1.6v-0.9H47.2z"/>
					</g>
					<path class="st7" d="M45.8,17.9c0-0.1,0-0.3,0-0.4l1.5,0.9l1.5-0.9c0,0.1,0,0.2,0,0.4c-0.4,0.3-0.7,0.6-1.1,0.7
						c-0.3,0.1-0.6,0.1-0.8,0C46.5,18.5,46.1,18.2,45.8,17.9z"/>
					<g>
						<path class="st5" d="M47.2,12.7h2.5c0.6,0,1.1,0.5,1,1.1c-0.1,0.8-0.3,1.8-0.5,2.3c-0.3,0.7-1.6,2-2.5,2.4
							c-0.3,0.1-0.6,0.1-0.8,0c-0.9-0.4-2.2-1.7-2.5-2.4c-0.2-0.5-0.4-1.5-0.5-2.3c-0.1-0.6,0.4-1.1,1-1.1H47.2z"/>
						<path class="st6" d="M43.6,12.8C43.7,12.8,43.7,12.8,43.6,12.8c0.1,0.2,0.1,0.2,0.1,0.3c0,0.1,0.1,0.1,0.1,0.1c0,0,0,0,0,0
							v-0.5h3.4c-1,0-2.5,0.5-2.9,0.7c-0.4,0.2,0.1,2.2,0,2.2c-0.1,0-0.2-0.4-0.3-0.5c-0.1-0.1-0.2-1.6-0.2-1.6v-0.2
							c-0.2,0.1-0.4,0-0.4-0.2C43.3,13,43.4,12.8,43.6,12.8z"/>
					</g>
					<g>
						<path class="st6" d="M47.2,12.7H47C47.1,12.7,47.1,12.7,47.2,12.7z"/>
						<path class="st6" d="M44.5,13.6l0.2-0.4l1.6-0.5H47c-0.4,0-0.8,0.1-1.3,0.2C44.7,13.3,44.5,13.6,44.5,13.6z"/>
					</g>
					<path class="st6" d="M43.4,13.4c-0.1,0.1-0.1,0.3,0,0.3c0,0,0.1,0.1,0.1,0.1c0,0.1,0.1,0.2,0.2,0.2c0.1,0,0.2,0,0.3,0
						c0,0,0,0,0.1,0c0,0,0,0.1,0,0.1c0,0,0,0,0,0.1c0,0,0,0.1,0.1,0.1c0,0,0,0,0,0c0,0.1-0.1,0.1-0.1,0.2c-0.1,0.1,0,0.2,0.1,0.2
						c0,0,0,0,0.1,0c0,0,0,0,0,0c0,0.1-0.1,0.1,0,0.2c0,0,0,0.1,0.1,0.1c0,0,0,0.1-0.1,0.1c0,0.1,0,0.2,0.1,0.1
						c0.2,0,0.2-0.3,0.2-0.4c0-0.1,0-0.1,0-0.2c0-0.1,0-0.1-0.1-0.2c0,0,0-0.1,0-0.1c0-0.1,0-0.2,0-0.3c0-0.1,0-0.1,0-0.2
						c0,0,0,0,0,0c0.1-0.1,0.1-0.2,0.1-0.4c0,0,0,0,0,0c0,0,0,0,0,0c0,0,0,0,0,0c0.1,0,0.1,0,0.2,0c0.1,0.1,0.3,0.1,0.4,0
						c0,0,0,0,0,0c0,0,0.1,0,0.1,0c0.1,0,0.3,0,0.4-0.1c0.1-0.1,0.2-0.2,0.2-0.3c0,0,0.1,0,0.1,0c0.1,0.1,0.3,0.2,0.4,0.1
						c0,0,0,0,0,0c0,0,0.1,0,0.1,0c0.2-0.1,0.3-0.1,0.5-0.2c0,0,0.1,0,0.1,0c0,0,0.1,0.1,0.2,0.1c0.1,0,0.2,0,0.2,0
						c0,0,0,0.1,0.1,0.1c0,0,0,0-0.1,0c-0.1,0,0,0.1,0,0.1c0.2,0.1,0.4,0,0.5-0.1c0.2,0,0.4,0,0.7,0.1c0.1,0,0.1,0,0.2,0
						c0,0,0,0,0,0c0.1,0,0.1,0.1,0.2,0.1c0,0.1,0.1,0.2,0.3,0.3c0.1,0,0.4,0,0.4-0.2c0,0,0-0.1,0-0.1c0.1,0,0.1,0,0.2,0
						c0,0.1-0.1,0.2-0.1,0.2c0,0,0,0.1,0.1,0.1c0.1,0,0.2-0.1,0.2-0.2c0,0,0,0,0,0c0,0,0.1,0.1,0.1,0.1c0,0.1,0,0.1,0,0.2
						c0,0.1-0.1,0.1-0.1,0.2c0,0.1,0.1,0.1,0.2,0.1c0,0.1,0,0.3,0,0.3c0,0.2,0,0.4-0.1,0.5c0,0,0,0.1,0,0.2c0,0,0,0,0,0
						c0,0.3-0.1,0.4,0,0.4c0.1,0,0.2-0.4,0.3-0.5c0.1-0.1,0.1-0.8,0.2-1.2c0,0,0,0,0-0.1c0.1,0,0.1,0,0.2-0.1c0-0.1,0.1-0.2,0-0.2
						c0,0,0,0,0,0c0,0,0,0,0,0C51,13.4,51,13.2,51,13c0,0,0,0,0,0c0.1-0.2,0.1-0.4,0-0.5c0-0.1,0-0.1,0-0.2c0-0.1,0-0.2-0.1-0.3
						C51,12,51,11.9,51,11.8c0-0.1-0.1-0.2-0.2-0.3c0,0,0,0-0.1,0c0,0,0,0,0,0c0,0,0.1-0.1,0.1-0.1c0.1-0.2,0.1-0.5,0-0.7
						c0,0-0.1-0.1-0.1,0c0,0,0,0,0,0c0-0.1-0.1-0.2-0.1-0.3C50.4,10,50.2,9.9,50,9.8c0-0.2-0.2-0.4-0.4-0.5c-0.1,0-0.2,0-0.3,0
						c-0.2-0.1-0.5-0.2-0.8-0.2c-0.1-0.1-0.2-0.2-0.4-0.3c0-0.1,0-0.1,0-0.2c0,0,0,0.1,0,0.2c0,0,0,0,0,0c-0.1,0-0.2,0-0.3,0
						c0,0,0,0,0,0c-0.1,0-0.1,0-0.2,0c-0.1-0.1-0.2-0.1-0.4-0.1v0.1c-0.1,0-0.2,0-0.3,0.1c-0.1-0.1-0.3-0.1-0.5,0
						c-0.2,0.1-0.3,0.2-0.4,0.3c0,0,0,0,0,0c0,0,0,0,0,0c0-0.1,0.1-0.2,0.1-0.2S46.1,8.9,46,9c0,0,0,0,0,0c0,0-0.1,0-0.1,0
						c0,0-0.1,0-0.1,0c-0.1,0-0.2,0.1-0.3,0.1c-0.4-0.1-0.9,0.2-0.9,0.6c-0.1,0.1-0.2,0.3-0.3,0.5c-0.1,0.1-0.3,0.2-0.3,0.4
						c0,0.1,0,0.1,0,0.2c-0.2,0.1-0.3,0.3-0.3,0.5c0,0.1,0,0.2,0.1,0.3c-0.1,0.1-0.1,0.2-0.1,0.2c0,0.2,0,0.3,0,0.5c0,0,0,0.1,0,0.1
						c0,0.1,0,0.1,0,0.2c0,0,0,0.1,0,0.1C43.3,12.9,43.2,13.2,43.4,13.4z M45.3,12.9c0.1,0,0.1,0,0.2,0c0,0.1-0.1,0.2-0.1,0.2
						c0,0,0,0,0,0C45.3,13.1,45.3,13,45.3,12.9C45.3,12.9,45.3,12.9,45.3,12.9z M44.9,12.9c0.1,0,0.2,0,0.3,0c0,0,0,0,0,0.1
						c0,0.1,0,0.1-0.1,0.1c0,0,0,0,0,0c0,0,0,0,0,0c0,0-0.1,0-0.1,0C44.9,13.1,45,13,44.9,12.9C44.9,12.9,44.9,12.9,44.9,12.9z
						 M44.3,13.2C44.2,13.2,44.2,13.2,44.3,13.2c0,0.1,0,0.1,0,0.1c-0.1,0-0.1,0.1-0.2,0.1c0,0,0,0,0,0c0,0,0,0,0,0
						c0-0.1,0-0.2,0-0.2c0-0.1,0-0.2,0.1-0.3c0,0,0-0.1,0-0.1l0.6,0.1c0,0,0,0,0.1,0c0,0-0.1,0-0.1,0.1c0,0.1-0.1,0.2-0.2,0.2
						c0-0.1,0-0.2,0-0.3c0-0.1-0.2-0.1-0.2,0C44.5,13,44.4,13.1,44.3,13.2C44.3,13.2,44.3,13.2,44.3,13.2z M44.1,13.7
						c0.1,0,0.2,0,0.2-0.1c0,0,0,0.1-0.1,0.1c0,0,0,0,0,0C44.2,13.8,44.2,13.8,44.1,13.7c0.1,0.1,0.1,0.1,0.1,0.1
						C44.1,13.8,44.1,13.7,44.1,13.7C44.1,13.7,44.1,13.7,44.1,13.7z"/>
					<g>
						<path class="st5" d="M50.6,14.2c0,0,0.2-0.6,0.2,0.1c0,0.7-0.5,1.2-0.5,1.2L50.6,14.2z"/>
						<path class="st5" d="M43.9,14.2c0,0-0.2-0.6-0.2,0.1c0,0.7,0.5,1.2,0.5,1.2L43.9,14.2z"/>
					</g>
				</g>
			</g>
			<circle class="st18" cx="31.7" cy="21.4" r="6.7"/>
			<path class="st19" d="M28.7,23c-0.1-1.2,0-2.1-0.3-2.4c-0.3-0.3-1.3-0.2-2,0.8c-0.7,1-0.2,2.8,0.9,3.2
				C28.4,25.1,28.8,24.2,28.7,23z"/>
			<path class="st20" d="M20.7,35.9c0,0,0.6,0.8,1.4,1c0.8,0.2,2.2,0,2.2,0s-0.8-1-1.8-1C21.5,35.9,20.7,35.9,20.7,35.9z"/>
			<polygon class="st20" points="6,41.8 10.2,49.6 7.7,50.9 3.7,43.1 			"/>
			<polygon class="st16" points="7.9,51 0.5,56 0.5,44 3.5,42.8 			"/>
		</g>
		<path class="st21" d="M14.1,33.4c0.4-0.3,5.9-1.6,5.9-1.6l-1.3,1.2c0,0,0.1,0.2-0.8,0.7c-0.9,0.4-1.2,2.8-1.2,2.8
			c0.3-0.1,0.7,0.2,1,0.2l6.9,0.2c1,0,1.6,0.7,1.8,1.6c0,0-0.6,1.3-3.5,1.6c-2.9,0.3-5.5,0.8-5.5,0.8s-1.4,3-3.4,4.3
			c-0.5,0.3-1.7,1-2,0.9c0,0-0.3,0-0.3,0c0,0-0.7,0-0.7,0c-1.3-0.7-2.9-0.4-2.9-0.4l-1.7-3.1C6.2,42.2,13.7,33.6,14.1,33.4z"/>
	</g>
	<path class="st22" d="M26.2,37.6c0,0-1.2-0.1-2.1-0.4c-0.1-0.1-0.4-0.5-0.4-0.5S25.4,36.2,26.2,37.6z"/>
	<g>
		<path class="st21" d="M47.7,53.9c0,0-1,1.9-0.6,2c0.4,0,7.3-1,8-5.5c0,0-1.1-1.6-1.4-2.2c-0.3-0.6-4.9,0.5-4.9,0.5L47.7,53.9z"/>
		<path class="st21" d="M54.1,49c0,0-0.3-0.8-1.1-1.8c-0.7-1-4.4-6.6-4.4-6.6s-1.2-0.6-2.3-0.8c-1.1-0.2-1.1-0.2-1.1-0.2l-4.5-4.9
			c0,0-2.9-0.7-2.4,2l3.5,4.1c0,0,0.9,4.5,2.1,6.1c1.2,1.6,2.2,2.2,2.2,2.2l1.4,4.1C47.6,53.2,51.4,51.9,54.1,49z"/>
		<g>
			<path class="st21" d="M40.4,46.9c0,0-1.6,3.8-1.4,4c0.2,0.2,3.2,2.5,3.5,2.4c0.3-0.1,0.9-2.3-0.6-3.4l-0.4-0.2L40.4,46.9z"/>
			<path class="st22" d="M41.2,50.9l-0.4,1.3l1.5,1C42.4,53.2,43,52.1,41.2,50.9z"/>
		</g>
		<path class="st0" d="M42.7,50.9c0,0-0.3-0.8-1.2-1.3c-0.8-0.4-1.7-1.3-1.9-0.9c-0.2,0.4-0.4,1.2-0.4,1.2S42.5,51,42.7,50.9z"/>
		<g>
			<path class="st21" d="M39.2,43.8c0,0-1.6,3.8-1.4,4c0.2,0.2,3.2,2.5,3.5,2.4c0.3-0.1,0.9-2.3-0.6-3.4l-0.4-0.2L39.2,43.8z"/>
			<path class="st22" d="M40,47.8l-0.4,1.3l1.5,1C41.1,50.1,41.8,49,40,47.8z"/>
		</g>
		<path class="st0" d="M41.4,47.5c0,0-0.4-0.7-1-0.9c-0.6-0.2-1.9-0.9-1.9-0.9l-0.4,1.1c0,0,1.9,0.5,2.4,0.5
			C41,47.3,41.4,47.5,41.4,47.5z"/>
		<g>
			<path class="st21" d="M38,40.6c0,0-1.6,3.8-1.4,4c0.2,0.2,3.2,2.5,3.5,2.4c0.3-0.1,0.9-2.3-0.6-3.4l-0.4-0.2L38,40.6z"/>
			<path class="st22" d="M38.8,44.6l-0.4,1.3l1.5,1C40,46.9,40.6,45.8,38.8,44.6z"/>
		</g>
		<path class="st0" d="M40.3,44.6c0,0-0.3-0.8-1.2-1.2s-1.7-1.3-1.9-0.9c-0.2,0.4-0.4,1.2-0.4,1.2S40.1,44.7,40.3,44.6z"/>
		<g>
			<path class="st21" d="M37,37.8c0,0-1.6,3.8-1.4,4c0.2,0.2,3.2,2.5,3.5,2.4c0.3-0.1,0.9-2.3-0.6-3.4l-0.4-0.2L37,37.8z"/>
			<path class="st22" d="M37.7,41.8l-0.4,1.3l1.5,1C38.9,44.1,39.6,43.1,37.7,41.8z"/>
		</g>
		<polygon class="st20" points="55.6,50.1 46.2,56.5 47.5,58.3 56.8,51.7 		"/>
		<path class="st22" d="M41.8,36.3l-2.1,1.6l-1.2-1.2c0,0,0-2.2,2.1-1.6L41.8,36.3z"/>
		<path class="st16" d="M46.8,58.5c3.3-2.2,11.1-7.5,11.2-7.6L69.8,64l-19.3,0C48.3,61,48,60.1,46.8,58.5z"/>
	</g>
</g>
</svg>
