<?xml version="1.0" encoding="utf-8"?>
<!-- Generator: Adobe Illustrator 22.1.0, SVG Export Plug-In . SVG Version: 6.00 Build 0)  -->
<svg version="1.1" id="Capa_1" xmlns="http://www.w3.org/2000/svg" xmlns:xlink="http://www.w3.org/1999/xlink" x="0px" y="0px"
	 viewBox="0 0 25 25" style="enable-background:new 0 0 25 25;" xml:space="preserve">
<style type="text/css">
	.st0{fill:#2B2B2B;}
</style>
<path class="st0" d="M22.9,2.3h-3.4V0.8c0-0.4-0.3-0.8-0.8-0.8S18,0.3,18,0.8v1.6h-4.7V0.8c0-0.4-0.4-0.8-0.8-0.8s-0.8,0.3-0.8,0.8
	v1.6H7V0.8C7,0.3,6.7,0,6.3,0S5.5,0.3,5.5,0.8v1.6H2.1C0.9,2.3,0,3.3,0,4.4v18.5C0,24.1,0.9,25,2.1,25h20.8c1.2,0,2.1-0.9,2.1-2.1
	V4.4C25,3.3,24.1,2.3,22.9,2.3z M23.4,22.9c0,0.3-0.2,0.5-0.5,0.5H2.1c-0.3,0-0.5-0.2-0.5-0.5V4.4c0-0.3,0.2-0.5,0.5-0.5h3.4v1.6
	c0,0.4,0.3,0.8,0.8,0.8S7,5.9,7,5.5V3.9h4.7v1.6c0,0.4,0.4,0.8,0.8,0.8s0.8-0.3,0.8-0.8V3.9H18v1.6c0,0.4,0.3,0.8,0.8,0.8
	s0.8-0.3,0.8-0.8V3.9h3.4c0.3,0,0.5,0.2,0.5,0.5V22.9z M5.5,9.4h3.1v2.3H5.5V9.4z M5.5,13.3h3.1v2.3H5.5V13.3z M5.5,17.2h3.1v2.3
	H5.5V17.2z M10.9,17.2h3.1v2.3h-3.1V17.2z M10.9,13.3h3.1v2.3h-3.1V13.3z M10.9,9.4h3.1v2.3h-3.1V9.4z M16.4,17.2h3.1v2.3h-3.1V17.2
	z M16.4,13.3h3.1v2.3h-3.1V13.3z M16.4,9.4h3.1v2.3h-3.1V9.4z"/>
</svg>
