<?xml version="1.0" encoding="utf-8"?>
<!-- Generator: Adobe Illustrator 22.1.0, SVG Export Plug-In . SVG Version: 6.00 Build 0)  -->
<svg version="1.1" id="Layer_1" xmlns="http://www.w3.org/2000/svg" xmlns:xlink="http://www.w3.org/1999/xlink" x="0px" y="0px"
	 viewBox="0 0 250 250" style="enable-background:new 0 0 250 250;" xml:space="preserve">
<style type="text/css">
	.st0{opacity:0.4;fill:#E5E8EB;enable-background:new    ;}
	.st1{fill:none;stroke:#A8B0BB;stroke-width:5;stroke-miterlimit:10;}
	.st2{fill:#A8B0BB;}
	.st3{fill:#FFFFFF;}
	.st4{fill:#F7F7F7;}
	.st5{fill:#E5E8EB;}
	.st6{fill:none;}
	.st7{fill:#E5E8EB;stroke:#FFFFFF;stroke-width:2;stroke-miterlimit:10;}
	.st8{fill:#16A085;stroke:#FFFFFF;stroke-width:2;stroke-miterlimit:10;}
	.st9{fill:#FFFFFF;stroke:#A8B0BB;stroke-width:5;stroke-miterlimit:10;}
	.st10{fill:#FFFFFF;stroke:#A8B0BB;stroke-width:4;stroke-miterlimit:10;}
</style>
<g>
	<path class="st0" d="M41.1,181.1h166.1c0,0-29.9,43.9-79,44.2c-49,0.2-1.1,0-1.1,0S71.4,226.4,41.1,181.1z"/>
	
		<ellipse transform="matrix(0.7071 -0.7071 0.7071 0.7071 -51.8343 125.005)" class="st1" cx="125" cy="125.1" rx="98.7" ry="98.7"/>
	<rect x="9.8" y="183.7" class="st2" width="12.6" height="5"/>
	<rect x="227.2" y="183.7" class="st2" width="12.6" height="5"/>
	<polygon class="st3" points="161,24.4 140.8,135.8 68.6,135.8 44.6,131.9 44.4,29.4 50.2,24.4 	"/>
	<polygon class="st4" points="161,24.4 110.7,135.8 183.1,135.8 206.9,131.9 207.2,29.4 201.3,24.4 	"/>
	<polygon class="st5" points="203.5,37.7 45.2,37.7 46.1,24.4 202.2,24.7 	"/>
	<path class="st1" d="M197,24.4H51.5c-4.4,0-7.8,3.4-7.8,7.8v102.1h161.1v-102C204.7,27.7,201.3,24.4,197,24.4z"/>
	<line class="st6" x1="71.8" y1="185.6" x2="179.8" y2="185.6"/>
	<path class="st2" d="M179,183.7H71 M67.8,183.7H25.2v5h42.9h3.3h107.2h3.3h42.9v-5h-42.6"/>
	<rect x="116.6" y="68.2" class="st5" width="38.3" height="3.5"/>
	<rect x="116.6" y="76.3" class="st5" width="26.9" height="3.5"/>
	<rect x="116.6" y="83.6" class="st5" width="31.2" height="3.5"/>
	<rect x="116.6" y="91.7" class="st5" width="38.3" height="12.9"/>
	<path class="st7" d="M177.1,111.6V50.8h-0.9H171H69.6v6.1l0,0v60.8h0.9h5.2h101.8v-6.1H177.1z M75.6,111.6V56.9H171v54.7H75.6z"/>
	<path class="st8" d="M80.6,76.8c0.4-9.6,8.4-9.5,9.2-9.5c0.7-0.1,8.8-0.1,9.2,9.5c0,0,1.5,14.3-9.2,14.5l0,0h-0.1h0.1l0,0
		C79.1,91.1,80.6,76.8,80.6,76.8z M109.5,108.2c0,0,0-0.1,0-0.2v8.6H89.9H70.3v-8.6c0,0.2,0,0.2,0,0.2c0-0.6,0-1.3,0-1.9V106
		c0,0,0,0,0-0.1c0.1-3.1,0.6-5.3,3.8-7.2c4.2-2.7,8.9-4.9,8.9-4.9l3.7,11.8l2.2-6.2c-3.8-5.3,0.2-5.6,1-5.6l0,0l0,0l0,0l0,0
		c0.7,0,4.9,0.2,1,5.6l2.2,6.2l3.7-11.8c0,0,4.7,2.3,8.9,4.9c3.2,1.9,3.7,4.1,3.8,7.2c0,0,0,0,0,0.1v0.2
		C109.5,107,109.5,107.5,109.5,108.2z M70.3,106C70.3,105.9,70.3,105.9,70.3,106L70.3,106z M109.5,106
		C109.5,105.9,109.5,105.9,109.5,106L109.5,106z"/>
	<path class="st9" d="M155.6,175.9H87c-4.4,0-7.8,3.4-7.8,7.8v2.6h84.5v-2.6C163.4,179.2,160.1,175.9,155.6,175.9z"/>
	<polygon class="st9" points="147.3,175.1 95.6,175.1 105.8,160.5 137,160.5 	"/>
	<path class="st9" d="M43.7,134.2v18.4c0,4.4,3.4,7.8,7.8,7.8H197c4.4,0,7.8-3.4,7.8-7.8v-18.4H43.7z"/>
	<g>
		<circle class="st2" cx="113" cy="147.5" r="2.3"/>
		<circle class="st2" cx="121" cy="147.5" r="2.3"/>
		<circle class="st2" cx="129" cy="147.5" r="2.3"/>
	</g>
	<circle class="st3" cx="57.4" cy="32" r="2.3"/>
	<circle class="st3" cx="65.5" cy="32" r="2.3"/>
	<circle class="st3" cx="73.6" cy="32" r="2.3"/>
	<ellipse class="st10" cx="193.7" cy="145.9" rx="19.4" ry="19.4"/>
	<polygon class="st2" points="200.9,140.6 201,140.4 199.3,138.7 193.7,144.4 188.2,138.9 188.1,138.7 186.4,140.4 192,146 
		186.5,151.5 186.4,151.7 188.1,153.3 193.7,147.8 199.2,153.2 199.3,153.3 201,151.7 195.4,146 	"/>
	<g>
		<path class="st8" d="M147.9,88.3v9c0,1.7,1,3.9,2.1,5.1l13.9,13.9c1.1,1.1,3.2,1.1,4.3,0l10.8-10.8c1.1-1.1,1.1-3.2,0-4.3
			L165,87.4c-1.1-1.1-3.5-2.1-5.1-2.1h-9C149.2,85.4,147.9,86.7,147.9,88.3z M151.8,92.4c0-1.7,1.4-3,3-3c1.7,0,3,1.4,3,3
			c0,1.7-1.4,3-3,3C153.2,95.3,151.8,94,151.8,92.4z"/>
	</g>
</g>
</svg>
